<?xml version="1.0" encoding="utf-8"?>
<!-- Generator: Adobe Illustrator 23.0.0, SVG Export Plug-In . SVG Version: 6.00 Build 0)  -->
<svg version="1.1" id="Layer_1" xmlns="http://www.w3.org/2000/svg" xmlns:xlink="http://www.w3.org/1999/xlink" x="0px" y="0px"
	 viewBox="0 0 25 25" style="enable-background:new 0 0 25 25;" xml:space="preserve">
<style type="text/css">
	.st0{fill-rule:evenodd;clip-rule:evenodd;fill:#FFFFFF;}
</style>
<g id="Layer_x0020_1">
	<path class="st0" d="M12.5,0C19.4,0,25,5.6,25,12.5S19.4,25,12.5,25S0,19.4,0,12.5S5.6,0,12.5,0z M9.2,6.6c0,2.1-2.9,2.6-3.6,0.8
		C5,5.7,6.4,4.2,8,4.9C8.6,5.1,9.2,5.8,9.2,6.6z M5.7,10.2h3.1v9.4H5.7C5.7,19.6,5.7,10.2,5.7,10.2z M14,14.4v5.2h-3v-9.4h3v1.2
		c0.2-0.1,0.1-0.1,0.3-0.3c0.2-0.3,0.6-0.5,0.8-0.7c2.1-1.3,5.2,0.3,5.2,3.2v5.9h-3v-5.2C17.3,11.9,14,11.9,14,14.4z"/>
</g>
</svg>
