<?xml version="1.0" encoding="utf-8"?>
<!-- Generator: Adobe Illustrator 23.0.0, SVG Export Plug-In . SVG Version: 6.00 Build 0)  -->
<svg version="1.1" id="Layer_1" xmlns="http://www.w3.org/2000/svg" xmlns:xlink="http://www.w3.org/1999/xlink" x="0px" y="0px"
	 viewBox="0 0 25 25" style="enable-background:new 0 0 25 25;" xml:space="preserve">
<style type="text/css">
	.st0{fill-rule:evenodd;clip-rule:evenodd;fill:#FFFFFF;}
</style>
<g id="Layer_x0020_1">
	<path class="st0" d="M12.5,0C19.4,0,25,5.6,25,12.5S19.4,25,12.5,25S0,19.4,0,12.5S5.6,0,12.5,0z M16.3,8.9l-0.8,4.6
		c-0.1,0.4-0.1,0.7-0.1,0.8c0,0.2,0.2,0.3,0.5,0.3c0.6,0,1.1-0.3,1.6-0.9c0.5-0.6,0.7-1.4,0.7-2.3c0-1.3-0.5-2.5-1.5-3.4
		c-1-0.9-2.3-1.4-3.8-1.4c-1.6,0-2.9,0.6-4,1.7s-1.7,2.5-1.7,4.1c0,1.5,0.5,2.8,1.5,4s2.5,1.7,4.6,1.7c1.3,0,2.6-0.3,4.1-0.9
		l0.6,1.7c-1.4,0.7-3,1-4.9,1c-2.6,0-4.5-0.8-5.9-2.3c-1.3-1.5-2-3.2-2-5.1c0-2.2,0.8-4,2.3-5.4C8.8,5.7,10.7,5,12.8,5
		c1.3,0,2.5,0.3,3.6,0.8c1.1,0.5,2,1.3,2.6,2.3c0.6,1,1,2.1,1,3.3c0,1.4-0.4,2.6-1.3,3.6c-0.9,1-1.9,1.5-3.1,1.5
		c-0.8,0-1.4-0.3-1.9-0.9c-0.6,0.6-1.2,0.9-2,0.9c-0.8,0-1.5-0.3-2.1-1c-0.5-0.7-0.8-1.5-0.8-2.6c0-1.2,0.4-2.2,1.1-3
		c0.7-0.8,1.6-1.2,2.6-1.2c0.6,0,1.1,0.2,1.6,0.6l0.1-0.4C14.3,8.9,16.3,8.9,16.3,8.9z M12,14.6c0.5,0,0.9-0.3,1.3-0.8
		c0.4-0.5,0.6-1.1,0.6-1.7c0-0.5-0.1-0.9-0.4-1.1c-0.3-0.3-0.6-0.4-0.9-0.4c-0.4,0-0.8,0.2-1.1,0.6c-0.3,0.4-0.4,1-0.4,1.6
		c0,0.5,0.1,0.9,0.3,1.2C11.5,14.5,11.7,14.6,12,14.6z"/>
</g>
</svg>
