<?xml version="1.0" encoding="utf-8"?>
<!-- Generator: Adobe Illustrator 23.0.0, SVG Export Plug-In . SVG Version: 6.00 Build 0)  -->
<svg version="1.1" id="Layer_1" xmlns="http://www.w3.org/2000/svg" xmlns:xlink="http://www.w3.org/1999/xlink" x="0px" y="0px"
	 viewBox="0 0 25 25" style="enable-background:new 0 0 25 25;" xml:space="preserve">
<style type="text/css">
	.st0{fill-rule:evenodd;clip-rule:evenodd;fill:#FEFEFE;}
</style>
<g id="Layer_x0020_1">
	<path class="st0" d="M12.5,0C19.4,0,25,5.6,25,12.5C25,19.4,19.4,25,12.5,25C5.6,25,0,19.4,0,12.5C0,5.6,5.6,0,12.5,0z M12.9,9.2
		c-1.2,0.5-3.7,1.5-7.3,3.1c-0.6,0.2-0.9,0.5-0.9,0.7c-0.1,0.4,0.4,0.5,1.1,0.7l0.3,0.1c0.6,0.2,1.5,0.4,1.9,0.4
		c0.4,0,0.9-0.1,1.4-0.5c3.4-2.3,5.2-3.5,5.3-3.5c0.1,0,0.2,0,0.2,0c0.1,0.1,0.1,0.2,0.1,0.2c-0.1,0.2-1.9,1.9-2.9,2.8
		c-0.3,0.3-0.5,0.5-0.6,0.5c-0.1,0.1-0.2,0.2-0.3,0.3c-0.6,0.6-1.1,1,0,1.7c0.5,0.3,0.9,0.6,1.3,0.9c0.4,0.3,0.9,0.6,1.5,1
		c0.1,0.1,0.3,0.2,0.4,0.3c0.5,0.4,1,0.7,1.5,0.6c0.3,0,0.7-0.3,0.9-1.3c0.4-2.2,1.2-7,1.4-9c0-0.2,0-0.3,0-0.5
		c0-0.1-0.1-0.2-0.2-0.3c-0.1-0.1-0.3-0.1-0.5-0.1C17.1,7.5,16.4,7.8,12.9,9.2z"/>
</g>
</svg>
