<?xml version="1.0" encoding="utf-8"?>
<!-- Generator: Adobe Illustrator 23.0.0, SVG Export Plug-In . SVG Version: 6.00 Build 0)  -->
<svg version="1.1" id="Layer_1" xmlns="http://www.w3.org/2000/svg" xmlns:xlink="http://www.w3.org/1999/xlink" x="0px" y="0px"
	 viewBox="0 0 25 25" style="enable-background:new 0 0 25 25;" xml:space="preserve">
<style type="text/css">
	.st0{fill-rule:evenodd;clip-rule:evenodd;fill:#FFFFFF;}
</style>
<g id="Layer_x0020_1">
	<path id="icon_01.svg" class="st0" d="M23.1,5.8C19.4,0,11.8-1.7,5.8,1.9C0.1,5.5-1.8,13.3,1.9,19.1l0.3,0.5L1,24.2l4.7-1.2
		l0.5,0.3c1.9,1.1,4.2,1.7,6.4,1.7c2.4,0,4.7-0.6,6.7-1.9C25,19.4,26.8,11.7,23.1,5.8C23.1,5.8,23.1,5.8,23.1,5.8z M19.9,17.9
		c-0.7,0.9-1.4,1.5-2.5,1.7c-0.6,0-1.4,0.3-4.5-0.9c-2.7-1.3-4.9-3.3-6.4-5.6c-0.9-1.1-1.4-2.5-1.5-4c0-1.2,0.4-2.3,1.3-3.1
		C6.4,5.7,6.8,5.5,7,5.5h0.8c0.3,0,0.6,0,0.8,0.6C9,6.9,9.7,8.8,9.7,9c0.2,0.2,0.1,1.4-0.6,2c-0.4,0.4-0.5,0.4-0.3,0.8
		c0.6,0.9,1.4,1.9,2.2,2.7c0.9,0.8,1.9,1.4,3,1.9c0.3,0.2,0.6,0.2,0.8-0.2c0.2-0.3,0.9-1.1,1.3-1.4c0.3-0.3,0.4-0.3,0.8-0.2l2.5,1.3
		c0.3,0.2,0.6,0.3,0.8,0.5C20.3,16.8,20.3,17.4,19.9,17.9C19.9,17.9,19.9,17.9,19.9,17.9z"/>
</g>
</svg>
