<?xml version="1.0" encoding="utf-8"?>
<!-- Generator: Adobe Illustrator 23.0.0, SVG Export Plug-In . SVG Version: 6.00 Build 0)  -->
<svg version="1.1" id="Layer_1" xmlns="http://www.w3.org/2000/svg" xmlns:xlink="http://www.w3.org/1999/xlink" x="0px" y="0px"
	 viewBox="0 0 25 25" style="enable-background:new 0 0 25 25;" xml:space="preserve">
<style type="text/css">
	.st0{fill-rule:evenodd;clip-rule:evenodd;fill:#FFFFFF;}
</style>
<g id="Layer_x0020_1">
	<path class="st0" d="M12.5,0C19.4,0,25,5.6,25,12.5C25,19.4,19.4,25,12.5,25C5.6,25,0,19.4,0,12.5C0,5.6,5.6,0,12.5,0z M20.1,18
		c-0.6,1-1.5,1.6-2.6,1.8c-0.6,0-1.4,0.3-4.6-0.9c-2.7-1.3-5-3.4-6.6-5.8c-1-1.1-1.5-2.6-1.6-4.1c0-1.3,0.5-2.4,1.3-3.2
		c0.3-0.3,0.6-0.5,0.9-0.5h0.8c0.3,0,0.6,0,0.8,0.6c0.3,0.8,1.1,2.7,1.1,2.9C9.8,9,9.7,10.2,9,10.9c-0.4,0.5-0.5,0.5-0.3,0.8
		c0.7,0.9,1.5,1.9,2.3,2.7c0.9,0.8,1.9,1.5,3,1.9c0.3,0.2,0.6,0.2,0.8-0.2c0.2-0.3,0.9-1.1,1.3-1.5c0.3-0.3,0.5-0.3,0.8-0.2l2.6,1.3
		c0.3,0.2,0.6,0.3,0.8,0.5C20.4,16.8,20.4,17.5,20.1,18C20.1,18,20.1,18,20.1,18z"/>
</g>
</svg>
