<?xml version="1.0" encoding="utf-8"?>
<!-- Generator: Adobe Illustrator 23.0.0, SVG Export Plug-In . SVG Version: 6.00 Build 0)  -->
<svg version="1.1" id="Layer_1" xmlns="http://www.w3.org/2000/svg" xmlns:xlink="http://www.w3.org/1999/xlink" x="0px" y="0px"
	 viewBox="0 0 25 25" style="enable-background:new 0 0 25 25;" xml:space="preserve">
<style type="text/css">
	.st0{fill-rule:evenodd;clip-rule:evenodd;fill:#FFFFFF;}
</style>
<g id="Layer_x0020_1">
	<path class="st0" d="M12.5,0C19.4,0,25,5.6,25,12.5C25,19.4,19.4,25,12.5,25C5.6,25,0,19.4,0,12.5C0,5.6,5.6,0,12.5,0z M12.5,4.8
		c3.2,0,5.8,2.6,5.8,5.8S14,18.6,12.5,21c-1.5-2.3-5.8-7.2-5.8-10.4S9.3,4.8,12.5,4.8z M12.5,8.2c1.3,0,2.3,1,2.3,2.3
		s-1,2.3-2.3,2.3s-2.3-1-2.3-2.3S11.2,8.2,12.5,8.2z"/>
</g>
</svg>
