<?xml version="1.0" encoding="utf-8"?>
<!-- Generator: Adobe Illustrator 23.0.0, SVG Export Plug-In . SVG Version: 6.00 Build 0)  -->
<svg version="1.1" id="Layer_1" xmlns="http://www.w3.org/2000/svg" xmlns:xlink="http://www.w3.org/1999/xlink" x="0px" y="0px"
	 viewBox="0 0 25 25" style="enable-background:new 0 0 25 25;" xml:space="preserve">
<style type="text/css">
	.st0{fill-rule:evenodd;clip-rule:evenodd;fill:#FFFFFF;}
</style>
<g id="Layer_x0020_1">
	<path class="st0" d="M12.5,0C19.4,0,25,5.6,25,12.5C25,19.4,19.4,25,12.5,25C5.6,25,0,19.4,0,12.5C0,5.6,5.6,0,12.5,0z M6.3,6.8
		h12.5c0.7,0,1.2,0.6,1.2,1.3v8.8c0,0.7-0.6,1.2-1.2,1.2H6.3c-0.7,0-1.3-0.5-1.3-1.2V8.1C5,7.4,5.6,6.8,6.3,6.8z M15.2,12.5l3.4,3.9
		c0.2,0.2-0.1,0.5-0.3,0.4l-4.1-3.1L14,14c-0.4,0.4-0.9,0.7-1.5,0.7c-0.6,0-1.1-0.2-1.5-0.7l-0.2-0.3l-4.1,3.1
		c-0.2,0.2-0.5-0.1-0.3-0.4l3.4-3.9L6.4,8.6C6.2,8.4,6.5,8.1,6.7,8.3l5.4,4c0.2,0.2,0.6,0.2,0.9,0l5.3-4c0.2-0.2,0.5,0.1,0.3,0.3
		C18.6,8.6,15.2,12.5,15.2,12.5z"/>
</g>
</svg>
