<?xml version="1.0" encoding="utf-8"?>
<!-- Generator: Adobe Illustrator 23.0.0, SVG Export Plug-In . SVG Version: 6.00 Build 0)  -->
<svg version="1.1" id="Layer_1" xmlns="http://www.w3.org/2000/svg" xmlns:xlink="http://www.w3.org/1999/xlink" x="0px" y="0px"
	 viewBox="0 0 16 16" style="enable-background:new 0 0 16 16;" xml:space="preserve">
<style type="text/css">
	.st0{fill:#4D00AB;}
</style>
<g id="Layer_x0020_1">
	<path class="st0" d="M0.9,8.9C0.9,8,1,7.1,1.1,6.3c0-0.5,0.4-0.8,0.8-0.8c0.9,0,1.7-0.1,2.6-0.2C4.7,5.3,4.9,5.2,5,5
		c0.4-0.4,0.7-0.8,1.1-1.1c0.2-0.2,0.2-0.4,0.3-0.6c0.1-0.8,0.1-1.5,0.2-2.2c0-0.5,0.4-0.8,0.8-0.9C8,0.1,8.7,0.1,9.3,0
		C9.6,0,9.8,0.1,10,0.3c0.2,0.2,0.3,0.4,0.2,0.7c-0.1,0.7-0.1,1.4-0.2,2.1C10,3.6,9.7,3.9,9.3,4C8.6,4.1,7.9,4.1,7.2,4.2
		C7,4.2,6.8,4.3,6.6,4.5C6.3,4.8,5.9,5.2,5.5,5.6C5.4,5.8,5.3,6,5.3,6.2C5.2,7.1,5.1,8,5,8.9c0,0.5-0.4,0.8-0.8,0.8
		c-0.8,0-1.6,0.1-2.5,0.1c-0.3,0-0.5-0.1-0.7-0.3C0.9,9.4,0.8,9.2,0.9,8.9z M0,14.8c0.1-1,0.2-2,0.3-3c0-0.5,0.4-0.9,0.9-0.9
		c1,0,1.9-0.1,2.9-0.2c0.2,0,0.4-0.1,0.6-0.3c0.4-0.4,0.8-0.9,1.2-1.3C6.1,9,6.2,8.8,6.2,8.6C6.3,7.7,6.4,6.9,6.5,6
		c0-0.5,0.4-0.9,0.9-1C8.1,5,8.9,4.9,9.6,4.8c0.3,0,0.6,0.1,0.8,0.3c0.2,0.2,0.3,0.5,0.3,0.8c-0.1,0.8-0.1,1.6-0.2,2.4
		c0,0.5-0.4,0.9-0.9,1C8.7,9.4,7.9,9.5,7.1,9.6c-0.2,0-0.4,0.1-0.6,0.3c-0.4,0.4-0.8,0.9-1.2,1.3C5.1,11.3,5,11.5,5,11.8
		c-0.1,1-0.2,2.1-0.3,3.1c0,0.5-0.4,0.9-0.9,0.9C2.9,15.9,2,16,1,16c-0.3,0-0.6-0.1-0.8-0.3C0.1,15.4,0,15.2,0,14.8z M16,5
		c-0.1,0.9-0.1,1.8-0.2,2.7c0,0.5-0.4,0.8-0.8,0.9c-0.9,0.1-1.7,0.3-2.6,0.4c-0.2,0-0.4,0.1-0.5,0.3c-0.4,0.4-0.7,0.8-1.1,1.2
		c-0.2,0.2-0.2,0.4-0.3,0.6c-0.1,0.8-0.1,1.5-0.2,2.3c0,0.5-0.4,0.8-0.8,0.9c-0.7,0.1-1.3,0.1-2,0.2c-0.3,0-0.5-0.1-0.7-0.3
		c-0.2-0.2-0.3-0.4-0.2-0.7c0.1-0.7,0.1-1.4,0.2-2.1c0-0.5,0.4-0.8,0.8-0.9c0.7-0.1,1.4-0.1,2.1-0.2c0.2,0,0.4-0.1,0.5-0.3
		c0.4-0.4,0.7-0.8,1.1-1.2c0.2-0.2,0.2-0.4,0.3-0.6c0.1-0.9,0.2-1.9,0.2-2.8c0-0.5,0.4-0.8,0.8-0.9c0.8-0.1,1.6-0.2,2.5-0.4
		c0.3,0,0.5,0,0.7,0.2C15.9,4.5,16,4.8,16,5z"/>
</g>
</svg>
