<svg width="1000" height="917" viewBox="0 0 1000 917" fill="none" xmlns="http://www.w3.org/2000/svg">
<path d="M72.4512 509.413C80.1512 459.18 87.8012 408.947 95.4345 358.713C99.3512 332.763 121.035 313.013 146.934 311.763C199.134 309.247 251.318 306.33 303.418 303.147C316.368 302.363 327.501 297.53 337.351 288.347C360.534 266.563 383.718 244.78 406.801 223.013C416.634 213.713 422.468 202.78 424.368 189.713C430.901 146.73 437.418 103.863 443.934 60.7801C447.951 34.6468 469.551 14.0801 495.434 11.8134C535.601 8.28011 575.634 4.31344 615.684 0.296773C631.451 -1.30323 645.001 3.58011 655.234 14.6134C665.468 25.5468 669.584 39.6801 667.184 55.6468C661.051 96.4968 654.934 137.247 648.701 178.097C644.701 204.33 623.118 225.463 597.218 228.047C554.868 232.247 512.401 236.213 469.934 239.847C457.001 240.963 445.851 245.947 436.018 255.33C412.934 277.213 389.734 299.18 366.551 320.763C356.718 329.963 351.001 340.897 348.984 353.963C341.051 406.713 333.034 459.563 325.001 512.313C320.984 538.347 299.401 558.697 273.501 560.23C223.718 563.147 173.834 565.713 123.951 568.063C108.185 568.813 94.6345 562.93 84.4012 551.23C74.1512 539.613 70.0178 525.28 72.4512 509.413ZM0.784527 850.013C9.46786 793.397 18.0512 736.78 26.6845 680.047C31.2012 650.63 55.5845 628.547 84.9012 627.297C143.918 624.78 202.851 621.93 261.768 618.597C276.318 617.763 288.968 612.197 300.001 601.947C326.201 577.647 352.401 553.063 378.601 528.48C389.634 518.113 396.168 505.63 398.468 490.93C405.901 442.43 413.234 393.847 420.551 345.247C424.968 315.63 449.468 292.58 478.668 290.08C524.051 286.197 569.318 281.897 614.584 277.313C632.351 275.497 647.601 280.98 659.251 293.38C670.784 305.863 675.418 321.83 672.701 339.93C665.784 385.997 658.851 432.08 651.818 478.047C647.401 507.763 622.918 531.813 593.701 534.68C545.834 539.363 497.851 543.813 449.868 547.747C435.218 548.947 422.668 554.513 411.618 564.963C385.418 589.747 359.218 614.33 333.034 638.813C321.984 649.18 315.468 661.463 313.251 676.28C304.218 735.797 295.184 795.33 286.051 854.947C281.634 884.48 257.151 907.147 227.934 908.68C171.618 911.613 115.318 914.33 58.9012 916.613C41.1345 917.33 25.7845 910.713 14.2345 897.547C2.58453 884.28 -1.98214 868.03 0.784527 850.013ZM999.318 289.113C991.701 340.213 984.068 391.23 976.434 442.23C972.418 468.563 950.851 490.747 924.951 494.413C872.768 501.78 820.568 508.63 768.351 515.213C755.418 516.847 744.268 522.18 734.534 531.863C711.351 554.713 688.151 577.547 664.968 600.097C655.134 609.68 649.418 620.713 647.401 633.98C640.884 677.247 634.351 720.213 627.834 763.397C623.918 789.713 602.234 810.73 576.434 813.23C536.384 817.13 496.234 820.83 456.084 824.18C440.434 825.48 426.884 820.113 416.534 808.78C406.301 797.463 402.301 783.23 404.701 767.363C410.834 726.713 416.934 686.147 423.068 645.497C427.084 619.363 448.668 598.947 474.551 596.713C517.018 593.047 559.468 588.963 601.834 584.813C614.784 583.547 625.918 578.23 635.768 568.647C658.951 546.097 682.134 523.447 705.218 500.797C715.051 491.113 720.884 479.897 722.784 466.73C730.818 413.78 738.851 360.547 746.768 307.313C750.784 280.98 772.384 259.647 798.268 256.297C848.168 249.863 898.051 243.013 947.934 235.88C963.701 233.63 977.234 237.913 987.484 248.463C997.718 259.113 1001.73 272.947 999.318 289.113Z" fill="#E6F0FF" fill-opacity="0.07"/>
</svg>
