<svg style="width:0; height:0; visibility: hidden;" xmlns="http://www.w3.org/2000/svg">
<symbol id="header-img" viewBox="0 0 741 427">
<g clip-path="url(#clip0_2067_141)">
	<path d="M445.537 193.84C447.315 174.714 449.004 155.588 450.781 136.462C451.67 126.588 459.402 119.115 469.179 118.581C488.82 117.603 508.551 116.535 528.104 115.29C532.992 115.023 537.08 113.155 540.546 109.686C548.812 101.413 557.077 93.1394 565.343 84.8663C568.809 81.3079 570.764 77.1269 571.209 72.2342C572.72 55.8658 574.142 39.5865 575.652 23.2181C576.541 13.2548 584.273 5.42647 593.961 4.62585C609.07 3.29147 624.09 1.77918 639.199 0.266888C645.154 -0.35582 650.309 1.5123 654.486 5.69335C658.574 9.87439 660.529 15.2119 659.907 21.35C658.485 36.9177 657.152 52.3965 655.73 67.9642C654.841 77.9275 647.109 86.0227 637.422 87.0013C621.513 88.6025 605.515 90.1148 589.606 91.5381C584.718 91.9829 580.63 93.8511 577.163 97.4094C568.898 105.771 560.721 114.045 552.367 122.318C548.812 125.787 546.945 129.968 546.501 134.95C544.724 155.054 542.946 175.159 541.08 195.175C540.191 205.049 532.459 212.788 522.682 213.411C503.929 214.568 485.087 215.457 466.335 216.436C460.38 216.703 455.136 214.479 450.959 210.031C446.871 205.316 445.004 199.8 445.537 193.84ZM426.251 323.364C428.207 301.836 430.162 280.308 432.117 258.691C433.184 247.482 441.894 239.12 452.914 238.586C475.133 237.608 497.352 236.54 519.571 235.295C525.082 234.939 529.703 232.893 533.614 228.979C542.946 219.727 552.278 210.386 561.61 201.046C565.521 197.132 567.743 192.328 568.276 186.724C569.964 168.309 571.653 149.806 573.253 131.303C574.23 120.005 582.94 111.287 593.961 110.308C611.025 108.796 628.001 107.195 645.065 105.416C651.731 104.704 657.597 106.839 662.307 111.554C666.929 116.269 669.062 122.407 668.439 129.256C666.84 146.781 665.329 164.306 663.729 181.831C662.751 193.129 654.041 202.291 643.021 203.359C625.068 205.138 607.026 206.828 588.895 208.34C583.385 208.785 578.763 210.92 574.853 214.923C565.521 224.353 556.189 233.694 546.857 243.034C542.946 246.948 540.724 251.663 540.28 257.268C538.236 279.952 536.191 302.547 534.147 325.232C533.17 336.44 524.46 345.069 513.439 345.692C492.198 346.849 470.956 347.827 449.715 348.717C443.049 348.984 437.094 346.493 432.384 341.422C427.762 336.44 425.629 330.213 426.251 323.364ZM790.911 109.953C789.223 129.434 787.534 148.827 785.756 168.22C784.868 178.273 777.224 186.724 767.448 188.058C747.895 190.816 728.342 193.484 708.7 195.975C703.812 196.598 699.724 198.644 696.258 202.291C687.992 211.009 679.816 219.638 671.55 228.267C668.084 231.914 666.129 236.095 665.684 241.166C664.262 257.623 662.751 273.992 661.24 290.36C660.352 300.412 652.619 308.33 642.932 309.308C627.912 310.82 612.803 312.155 597.694 313.489C591.828 314.023 586.584 311.977 582.407 307.618C578.23 303.348 576.452 297.921 576.986 291.872C578.408 276.394 579.741 261.004 581.163 245.525C582.052 235.562 589.784 227.822 599.471 226.933C615.469 225.509 631.378 223.997 647.287 222.396C652.175 221.951 656.263 219.905 659.73 216.258C667.995 207.718 676.261 199.089 684.437 190.46C687.903 186.813 689.859 182.543 690.303 177.472C692.081 157.367 693.947 137.085 695.724 116.802C696.613 106.75 704.346 98.6548 714.033 97.4094C732.786 94.9186 751.45 92.3388 770.114 89.67C775.98 88.7804 781.224 90.4706 785.401 94.4738C789.578 98.5658 791.444 103.814 790.911 109.953Z" fill="#E6F0FF" fill-opacity="0.2"/>
<path fill-rule="evenodd" clip-rule="evenodd" d="M102.564 378.518L0.800153 157.723C-2.13277 151.407 3.28869 143.223 9.95442 141.444L119.095 383.055C113.495 385.634 105.141 384.033 102.564 378.518Z" fill="#C14317"/>
<path fill-rule="evenodd" clip-rule="evenodd" d="M104.43 377.628L2.66699 156.922C1.24497 153.809 1.24497 150.606 2.75586 147.493C4.17789 144.379 6.7553 142.333 10.0437 141.533L266.008 76.5042C271.074 75.1698 276.229 77.5717 278.628 82.2864L366.794 258.246C368.216 261.004 368.393 263.939 367.327 266.875C366.26 269.811 364.305 271.946 361.461 273.28L119.095 383.055C113.496 385.634 107.008 383.144 104.43 377.628Z" fill="#DBBD7F"/>
<path fill-rule="evenodd" clip-rule="evenodd" d="M119.805 380.653L360.838 271.501C363.327 270.344 365.104 268.476 365.993 265.896C366.882 263.317 366.793 260.737 365.549 258.246L277.916 83.4429C275.872 79.2619 271.251 77.2158 266.807 78.3723L12.2649 143.045C9.33193 143.757 7.11002 145.625 5.86575 148.294C4.5326 151.051 4.5326 153.898 5.77687 156.567L106.829 375.76C109.14 380.653 114.917 382.877 119.805 380.653Z" fill="black"/>
<path d="M119.628 378.518L360.661 269.366C364.66 267.498 366.349 262.783 364.394 258.869L276.761 84.1546C275.073 80.8632 271.518 79.2619 267.963 80.1515L13.5095 144.824C8.79905 145.981 6.39939 151.14 8.35467 155.588L109.407 374.781C111.185 378.518 115.717 380.297 119.628 378.518Z" fill="url(#paint0_linear_2067_141)"/>
<path fill-rule="evenodd" clip-rule="evenodd" d="M111.451 377.628L114.651 387.591C114.651 387.769 114.917 387.947 115.451 387.947L282.183 395.242C288.671 395.509 294.181 394.263 299.869 391.239L554.411 255.933C555.122 255.577 555.389 255.044 555.211 254.599C555.211 254.599 555.211 254.599 555.211 254.51L552.189 245.169L111.451 377.628Z" fill="#AC2C00"/>
<path fill-rule="evenodd" clip-rule="evenodd" d="M111.451 377.628L114.473 386.791C114.473 386.969 114.74 387.147 115.273 387.147L281.827 393.819C288.226 394.085 293.826 392.84 299.514 389.815L554.234 255.044C554.945 254.688 555.211 254.154 555.033 253.709C555.033 253.709 555.033 253.709 555.033 253.62L552.278 245.169L111.451 377.628Z" fill="url(#paint1_linear_2067_141)"/>
<path fill-rule="evenodd" clip-rule="evenodd" d="M550.856 244.546L375.503 261.271C372.57 261.537 370.171 262.16 367.504 263.406L112.073 377.005C111.718 377.183 111.451 377.45 111.451 377.628C111.451 377.806 111.718 377.984 112.251 377.984L278.272 383.144C284.671 383.321 290.271 382.076 295.959 379.14L551.39 246.592C552.101 246.237 552.367 245.703 552.189 245.258C552.189 244.813 551.656 244.457 550.856 244.546Z" fill="url(#paint2_linear_2067_141)"/>
<path fill-rule="evenodd" clip-rule="evenodd" d="M550.856 244.546L375.503 261.36C372.57 261.626 370.17 262.338 367.504 263.495L112.073 377.005C111.629 377.183 111.451 377.361 112.073 377.361L277.65 381.098C284.049 381.275 289.648 379.941 295.337 377.005L551.123 245.614C552.189 245.08 552.1 244.457 550.856 244.546Z" fill="url(#paint3_linear_2067_141)"/>
<path fill-rule="evenodd" clip-rule="evenodd" d="M245.744 359.836L163.444 361.616L361.372 271.412L443.227 263.139L245.744 359.836Z" fill="url(#paint4_linear_2067_141)"/>
<path d="M174.376 361.438C240.145 331.103 305.913 300.679 371.682 270.344L373.993 270.077L176.243 361.349L174.376 361.438ZM243.789 359.925L440.917 263.406L445.538 262.961L247.61 359.836L243.789 359.925ZM162.733 361.616L360.572 271.412L362.261 271.234L164.155 361.616H162.733ZM227.969 360.192L424.83 265.007L429.096 264.562L231.524 360.192H227.969ZM213.304 360.548L409.988 266.519L413.809 266.163L216.504 360.548H213.304ZM199.528 360.815L396.212 267.854L399.589 267.498L202.283 360.726L199.528 360.815ZM186.552 361.171C252.232 330.569 317.823 299.79 383.502 269.188L386.346 268.921L188.863 361.082L186.552 361.171Z" fill="#822100"/>
<path fill-rule="evenodd" clip-rule="evenodd" d="M498.33 106.394L494.775 106.216L463.579 426.377L467.134 426.911C469.534 427.267 480.643 426.377 482.865 426.021C485.087 425.577 487.22 424.687 489.264 423.264C493.264 420.417 495.664 416.414 496.108 411.521L523.837 127.21C524.282 122.318 522.771 117.87 519.394 114.311C517.705 112.532 515.75 111.198 513.617 110.397C511.572 109.508 500.818 106.483 498.33 106.394Z" fill="#AC2C00"/>
<path fill-rule="evenodd" clip-rule="evenodd" d="M495.22 410.721L465.446 407.785L492.998 124.809L522.86 127.744L495.22 410.721Z" fill="url(#paint5_linear_2067_141)"/>
<path fill-rule="evenodd" clip-rule="evenodd" d="M466.956 426.911L463.579 426.377L465.534 406.718L495.397 409.653L495.219 411.343C494.775 416.236 492.464 420.239 488.553 423.086C486.598 424.509 484.554 425.399 482.332 425.844C480.11 426.377 469.356 427.267 466.956 426.911Z" fill="url(#paint6_linear_2067_141)"/>
<path fill-rule="evenodd" clip-rule="evenodd" d="M498.242 106.394L494.776 106.216L492.82 125.876L522.683 128.812L522.861 127.121C523.305 122.229 521.883 117.781 518.594 114.311C516.995 112.532 515.039 111.198 512.995 110.397C511.04 109.419 500.641 106.483 498.242 106.394Z" fill="url(#paint7_linear_2067_141)"/>
<path fill-rule="evenodd" clip-rule="evenodd" d="M494.775 106.216L463.579 426.377C473.444 428.868 485.087 422.463 486.154 412.144L514.15 124.542C515.127 114.311 505.084 105.683 494.775 106.216Z" fill="url(#paint8_linear_2067_141)"/>
<path fill-rule="evenodd" clip-rule="evenodd" d="M494.775 106.216L426.429 109.686C418.164 110.13 411.676 116.357 410.876 124.542L384.835 392.128C384.035 400.312 389.279 407.785 397.278 409.742L463.668 426.377C464.913 426.644 466.068 426.822 467.224 426.911C468.379 426.911 469.534 426.911 470.69 426.644C471.845 426.466 472.912 426.11 473.978 425.666C475.045 425.221 476.111 424.598 477.089 423.886C481.177 421.04 483.488 416.948 484.021 411.966L512.106 124.275C512.55 119.293 511.04 114.845 507.573 111.287C505.885 109.508 503.929 108.173 501.796 107.284C499.663 106.483 497.264 106.038 494.775 106.216Z" fill="black"/>
<path d="M508.817 124.364L480.821 411.254C479.933 419.972 471.667 425.755 463.224 423.709L397.544 407.251C390.701 405.561 386.168 399.156 386.879 392.039L412.92 125.075C413.631 118.048 419.23 112.621 426.34 112.265L493.975 108.796C502.685 108.351 509.706 115.646 508.817 124.364Z" fill="url(#paint9_linear_2067_141)"/>
<path fill-rule="evenodd" clip-rule="evenodd" d="M487.932 102.569L459.936 389.46C459.491 393.73 457.447 397.199 453.981 399.69C450.515 402.181 446.515 402.892 442.338 401.825L376.658 385.368C369.815 383.677 365.282 377.272 365.993 370.245L392.034 103.281C392.745 96.2529 398.344 90.8265 405.454 90.4706L473.089 87.0013C477.355 86.8233 481.088 88.2467 484.11 91.3602C487.043 94.4738 488.376 98.299 487.932 102.569Z" fill="#E6F0FF" fill-opacity="0.2"/>
<path fill-rule="evenodd" clip-rule="evenodd" d="M139.625 345.158L380.657 236.006C382.702 235.117 384.035 233.605 384.746 231.559C385.457 229.513 385.368 227.466 384.39 225.509L296.758 50.7952C295.069 47.5038 291.514 45.9025 287.959 46.7921L33.5062 111.376C31.1954 111.999 29.5068 113.333 28.4403 115.557C27.3737 117.692 27.3737 119.916 28.3514 122.14L129.404 341.333C131.181 345.158 135.803 346.849 139.625 345.158Z" fill="#E6F0FF" fill-opacity="0.2"/>
</g>
</symbol>

<defs id="clip0_2067_141">
	<linearGradient id="paint0_linear_2067_141" x1="230.195" y1="342.726" x2="151.552" y2="100.027"
		gradientUnits="userSpaceOnUse">
		<stop stop-color="#6699FF" />
		<stop offset="1" stop-color="#8A4FFF" />
	</linearGradient>
	<linearGradient id="paint1_linear_2067_141" x1="122.281" y1="410.979" x2="560.05" y2="269.392"
		gradientUnits="userSpaceOnUse">
		<stop stop-color="#FF875C" />
		<stop offset="0.3412" stop-color="#FF875C" />
		<stop offset="0.3804" stop-color="#D65A2E" />
		<stop offset="1" stop-color="#D65A2E" />
	</linearGradient>
	<linearGradient id="paint2_linear_2067_141" x1="115.922" y1="391.321" x2="553.689" y2="249.732"
		gradientUnits="userSpaceOnUse">
		<stop stop-color="#FF875C" />
		<stop offset="0.102" stop-color="#FFE6DE" />
		<stop offset="0.902" stop-color="#FFE6DE" />
		<stop offset="1" stop-color="#FF875C" />
	</linearGradient>
	<linearGradient id="paint3_linear_2067_141" x1="110.451" y1="349.559" x2="558.759" y2="291.29"
		gradientUnits="userSpaceOnUse">
		<stop stop-color="#DBBD7F" />
		<stop offset="0.5686" stop-color="#DBBD7F" />
		<stop offset="0.6" stop-color="#F1DAAB" />
		<stop offset="1" stop-color="#F1DAAB" />
	</linearGradient>
	<linearGradient id="paint4_linear_2067_141" x1="159.108" y1="332.949" x2="451.6" y2="297.881"
		gradientUnits="userSpaceOnUse">
		<stop stop-color="#C14317" />
		<stop offset="0.702" stop-color="#D65A2E" />
		<stop offset="0.749" stop-color="#FF875C" />
		<stop offset="1" stop-color="#FF9F7D" />
	</linearGradient>
	<linearGradient id="paint5_linear_2067_141" x1="480.302" y1="409.232" x2="507.937" y2="126.276"
		gradientUnits="userSpaceOnUse">
		<stop stop-color="#EA7045" />
		<stop offset="0.102" stop-color="#EA7045" />
		<stop offset="0.4" stop-color="#FFB79D" />
		<stop offset="0.6" stop-color="#FFB79D" />
		<stop offset="0.902" stop-color="#EA7045" />
		<stop offset="1" stop-color="#EA7045" />
	</linearGradient>
	<linearGradient id="paint6_linear_2067_141" x1="478.027" y1="407.921" x2="480.889" y2="428.299"
		gradientUnits="userSpaceOnUse">
		<stop stop-color="#EA7045" />
		<stop offset="0.502" stop-color="#EA7045" />
		<stop offset="0.702" stop-color="#FFE6DE" />
		<stop offset="0.8" stop-color="#FFE6DE" />
		<stop offset="0.949" stop-color="#FF875C" />
		<stop offset="1" stop-color="#FF875C" />
	</linearGradient>
	<linearGradient id="paint7_linear_2067_141" x1="505.404" y1="127.11" x2="512.153" y2="107.669"
		gradientUnits="userSpaceOnUse">
		<stop stop-color="#EA7045" />
		<stop offset="0.502" stop-color="#EA7045" />
		<stop offset="0.702" stop-color="#FFE6DE" />
		<stop offset="0.8" stop-color="#FFE6DE" />
		<stop offset="0.949" stop-color="#FF875C" />
		<stop offset="1" stop-color="#FF875C" />
	</linearGradient>
	<linearGradient id="paint8_linear_2067_141" x1="474.017" y1="427.591" x2="505.321" y2="107.046"
		gradientUnits="userSpaceOnUse">
		<stop stop-color="#FF875C" />
		<stop offset="0.102" stop-color="#FFE6DE" />
		<stop offset="0.902" stop-color="#FFE6DE" />
		<stop offset="1" stop-color="#FF875C" />
	</linearGradient>
	<linearGradient id="paint9_linear_2067_141" x1="432" y1="420.776" x2="462.787" y2="105.605"
		gradientUnits="userSpaceOnUse">
		<stop stop-color="#6699FF" />
		<stop offset="1" stop-color="#8A4FFF" />
	</linearGradient>
	<clipPath >
		<rect width="791" height="427" fill="white" />
	</clipPath>
</defs>

</svg>
