<svg width="485" height="45" viewBox="0 0 485 45" fill="none" xmlns="http://www.w3.org/2000/svg">
<g clip-path="url(#clip0_2067_173)">
<path d="M2.08386 43.7865L6.45319 14.8087H14.9899C15.9708 14.8087 16.8147 15.2087 17.4537 15.976C18.0913 16.7449 18.3466 17.6669 18.1951 18.6662L15.9506 33.5834C19.2554 33.5834 22.1562 33.463 25.1999 31.8837C31.117 28.7444 34.5285 17.4245 28.3835 13.3305C26.4693 12.0545 23.8973 11.4166 20.6705 11.4166H6.96384L8.50298 1.21497H24.6013C31.7287 1.21497 36.9707 3.01586 40.3274 6.61913C48.1227 15.0154 44.0375 30.3579 36.6476 37.2269C31.9681 41.599 25.813 43.7865 18.1821 43.7865H2.08386ZM416.606 40.3944H432.715L423.583 9.04907L403.002 43.7865H398.656L424.243 1.21497H425.355L438.148 43.7865H414.597L416.606 40.3944ZM188.145 33.5834H195.794L192.331 10.9927L177.486 43.7865H164.28L186.357 1.21497H201.323L210.564 43.7865H181.115L184.714 35.8349C185.35 34.4296 186.64 33.5834 188.145 33.5834ZM47.4404 39.9275L53.2767 1.21497H65.6029L59.1837 43.7865H50.647C49.6661 43.7865 48.8208 43.385 48.1818 42.6162C47.5442 41.8488 47.2903 40.9268 47.4404 39.9275ZM95.1943 19.1302H115.042C113.165 34.8609 105.673 45 89.2036 45C83.3341 45 78.4988 43.6036 74.6949 40.8108C63.367 32.4904 67.9152 14.193 77.0909 6.25479C81.9103 2.08493 87.9039 0 95.0731 0C102.766 0 110.858 2.36153 114.041 10.3235L102.382 15.3039C99.7526 8.55089 90.1484 9.20522 85.4502 13.2992C80.4736 17.6282 78.0199 28.1837 83.5576 33.1894C88.9829 38.0924 98.7587 35.4914 101.429 28.4826H91.0024L91.9876 21.9602C92.2357 20.3184 93.583 19.1302 95.1943 19.1302ZM117.999 39.9275L123.835 1.21497H136.161L129.742 43.7865H121.205C120.223 43.7865 119.379 43.385 118.74 42.6162C118.103 41.8488 117.847 40.9268 117.999 39.9275ZM144.411 39.9275L148.707 11.4166H139.022L140.562 1.21497H172.32L170.778 11.4166H161.031L156.154 43.7865H147.616C146.635 43.7865 145.791 43.385 145.152 42.6176C144.515 41.8488 144.259 40.9268 144.411 39.9275ZM214.666 39.9275L220.504 1.21497H232.829L227.952 33.5834H241.158L239.617 43.7865H217.873C216.892 43.7865 216.047 43.385 215.409 42.6162C214.77 41.8488 214.516 40.9268 214.666 39.9275ZM246.031 43.7865L252.445 1.21497H253.51L280.821 35.1018L285.872 1.20456L290.181 1.21497L283.761 43.7865H282.697L255.39 9.87888L250.339 43.7954L246.031 43.7865ZM297.297 17.3992C301.26 6.36632 312 0 323.174 0C335.617 0 345.759 8.53453 343.672 22.1922C341.57 35.9494 329.553 44.939 316.42 44.939C305.994 44.939 296.543 39.0902 295.761 27.6008H300.421C301.316 36.5562 308.603 41.5395 316.934 41.5395C327.973 41.5395 337.387 33.6057 339.121 22.2546C340.833 11.0537 333.198 3.40102 322.659 3.40102C313.822 3.40102 305.255 8.88698 301.896 17.3992H297.297ZM346.586 43.7865L358.743 1.21497H359.806L371.86 37.4693L394.928 1.21497H395.996L395.322 43.7865H391.344L391.912 12.1869L371.73 43.7865H370.13L359.486 12.1646L350.58 43.7954L346.586 43.7865ZM444.374 43.7865L448.744 14.8072H452.984L449.132 40.3751L455.369 40.3855C462.202 40.3855 467.639 38.5638 471.658 34.9189C478.719 28.5808 481.562 14.8622 473.259 8.25942C470.215 5.82948 466.052 4.61599 460.76 4.61599L450.281 4.60558L450.792 1.21497H461.735C468.61 1.21497 473.909 2.93556 477.632 6.37673C486.562 14.6629 483.13 29.3719 475.071 36.8016C470.077 41.4577 463.492 43.7865 455.316 43.7865H444.374Z" fill="#DBBD7F"/>
</g>
<defs>
<clipPath id="clip0_2067_173">
<rect width="485" height="45" fill="white"/>
</clipPath>
</defs>
</svg>
