<svg style="width:0; height:0; visibility: hidden;" xmlns="http://www.w3.org/2000/svg">
	<defs id="clip0_2067_173">
		<clipPath >
			<rect width="485" height="45" fill="white" />
		</clipPath>
	</defs>
	<symbol id="svg-logo" viewBox="0 0 485 45">
		<g clip-path="url(#clip0_2067_173)">
			<path
				d="M2.08386 43.7865L6.45319 14.8087H14.9899C15.9708 14.8087 16.8147 15.2087 17.4537 15.976C18.0913 16.7449 18.3466 17.6669 18.1951 18.6662L15.9506 33.5834C19.2554 33.5834 22.1562 33.463 25.1999 31.8837C31.117 28.7444 34.5285 17.4245 28.3835 13.3305C26.4693 12.0545 23.8973 11.4166 20.6705 11.4166H6.96384L8.50298 1.21497H24.6013C31.7287 1.21497 36.9707 3.01586 40.3274 6.61913C48.1227 15.0154 44.0375 30.3579 36.6476 37.2269C31.9681 41.599 25.813 43.7865 18.1821 43.7865H2.08386ZM416.606 40.3944H432.715L423.583 9.04907L403.002 43.7865H398.656L424.243 1.21497H425.355L438.148 43.7865H414.597L416.606 40.3944ZM188.145 33.5834H195.794L192.331 10.9927L177.486 43.7865H164.28L186.357 1.21497H201.323L210.564 43.7865H181.115L184.714 35.8349C185.35 34.4296 186.64 33.5834 188.145 33.5834ZM47.4404 39.9275L53.2767 1.21497H65.6029L59.1837 43.7865H50.647C49.6661 43.7865 48.8208 43.385 48.1818 42.6162C47.5442 41.8488 47.2903 40.9268 47.4404 39.9275ZM95.1943 19.1302H115.042C113.165 34.8609 105.673 45 89.2036 45C83.3341 45 78.4988 43.6036 74.6949 40.8108C63.367 32.4904 67.9152 14.193 77.0909 6.25479C81.9103 2.08493 87.9039 0 95.0731 0C102.766 0 110.858 2.36153 114.041 10.3235L102.382 15.3039C99.7526 8.55089 90.1484 9.20522 85.4502 13.2992C80.4736 17.6282 78.0199 28.1837 83.5576 33.1894C88.9829 38.0924 98.7587 35.4914 101.429 28.4826H91.0024L91.9876 21.9602C92.2357 20.3184 93.583 19.1302 95.1943 19.1302ZM117.999 39.9275L123.835 1.21497H136.161L129.742 43.7865H121.205C120.223 43.7865 119.379 43.385 118.74 42.6162C118.103 41.8488 117.847 40.9268 117.999 39.9275ZM144.411 39.9275L148.707 11.4166H139.022L140.562 1.21497H172.32L170.778 11.4166H161.031L156.154 43.7865H147.616C146.635 43.7865 145.791 43.385 145.152 42.6176C144.515 41.8488 144.259 40.9268 144.411 39.9275ZM214.666 39.9275L220.504 1.21497H232.829L227.952 33.5834H241.158L239.617 43.7865H217.873C216.892 43.7865 216.047 43.385 215.409 42.6162C214.77 41.8488 214.516 40.9268 214.666 39.9275ZM246.031 43.7865L252.445 1.21497H253.51L280.821 35.1018L285.872 1.20456L290.181 1.21497L283.761 43.7865H282.697L255.39 9.87888L250.339 43.7954L246.031 43.7865ZM297.297 17.3992C301.26 6.36632 312 0 323.174 0C335.617 0 345.759 8.53453 343.672 22.1922C341.57 35.9494 329.553 44.939 316.42 44.939C305.994 44.939 296.543 39.0902 295.761 27.6008H300.421C301.316 36.5562 308.603 41.5395 316.934 41.5395C327.973 41.5395 337.387 33.6057 339.121 22.2546C340.833 11.0537 333.198 3.40102 322.659 3.40102C313.822 3.40102 305.255 8.88698 301.896 17.3992H297.297ZM346.586 43.7865L358.743 1.21497H359.806L371.86 37.4693L394.928 1.21497H395.996L395.322 43.7865H391.344L391.912 12.1869L371.73 43.7865H370.13L359.486 12.1646L350.58 43.7954L346.586 43.7865ZM444.374 43.7865L448.744 14.8072H452.984L449.132 40.3751L455.369 40.3855C462.202 40.3855 467.639 38.5638 471.658 34.9189C478.719 28.5808 481.562 14.8622 473.259 8.25942C470.215 5.82948 466.052 4.61599 460.76 4.61599L450.281 4.60558L450.792 1.21497H461.735C468.61 1.21497 473.909 2.93556 477.632 6.37673C486.562 14.6629 483.13 29.3719 475.071 36.8016C470.077 41.4577 463.492 43.7865 455.316 43.7865H444.374Z"
				fill="#DBBD7F" />
		</g>
	</symbol>
	<!-- ************* -->
	<defs id="clip0_2081_423">
		<clipPath>
			<rect width="285" height="240" fill="white" />
		</clipPath>
	</defs>
	<symbol id="svg-serv1" viewBox="0 0 285 240">
	
		<g clip-path="url(#clip0_2081_423)">
			<path
				d="M175.99 26.0644C180.371 27.3267 184.604 28.8119 188.837 30.5198C193.069 32.302 197.228 34.3069 201.163 36.4604L211.337 26.2871C214.827 22.797 220.322 22.6485 224.035 25.6931C231.015 30.5198 237.401 35.9406 243.267 41.7327C249.282 47.7475 254.777 54.3564 259.752 61.5594C262.426 65.4208 261.832 70.4703 258.639 73.6634H258.713L248.54 83.8366C250.693 87.7723 252.698 91.9307 254.48 96.1634C256.188 100.322 257.673 104.629 258.936 109.01H273.342C278.317 109.01 282.401 112.797 282.772 117.698C283.515 121.559 284.035 125.569 284.406 129.653C284.777 134.109 285 138.416 285 142.5C285 146.584 284.777 150.817 284.406 155.347C283.96 159.728 283.441 163.96 282.624 168.119C281.807 172.723 277.797 175.916 273.342 175.916V175.99H258.936C257.673 180.371 256.188 184.604 254.48 188.837C252.698 193.069 250.693 197.228 248.54 201.163L258.713 211.337C262.129 214.827 262.351 220.322 259.307 224.035C254.48 231.015 249.059 237.401 243.267 243.267C237.252 249.282 230.644 254.777 223.441 259.752C219.579 262.426 214.53 261.832 211.337 258.639V258.713L201.163 248.54C197.228 250.693 193.069 252.698 188.837 254.48C184.604 256.188 180.371 257.673 175.99 258.936V273.342C175.99 278.317 172.203 282.401 167.302 282.772C163.441 283.515 159.431 284.035 155.347 284.406C150.817 284.777 146.584 285 142.5 285C138.416 285 134.109 284.777 129.653 284.406C125.272 283.96 121.04 283.441 116.881 282.624C112.277 281.807 109.01 277.797 109.084 273.342H109.01V258.936C104.629 257.673 100.322 256.188 96.1634 254.48C91.9307 252.698 87.7723 250.693 83.8366 248.54L73.6634 258.713C70.1733 262.129 64.6782 262.351 60.9653 259.307C53.9851 254.48 47.599 249.059 41.7327 243.267C35.7178 237.252 30.2228 230.644 25.2475 223.441C22.5743 219.579 23.1683 214.53 26.3614 211.337H26.2871L36.4604 201.163C34.3069 197.228 32.302 193.069 30.5198 188.837C28.8119 184.604 27.3267 180.371 26.0644 175.99H11.6584C6.68317 175.99 2.59901 172.203 2.22772 167.302C1.48515 163.441 0.965346 159.431 0.594059 155.347C0.222772 150.891 0 146.584 0 142.5C0 138.416 0.222772 134.109 0.594059 129.653C1.0396 125.272 1.55941 121.04 2.37624 116.881C3.19307 112.277 7.12871 109.01 11.6584 109.084V109.01H26.0644C27.3267 104.629 28.8119 100.322 30.5198 96.1634C32.302 91.9307 34.3069 87.7723 36.4604 83.8366L26.2871 73.6634C22.797 70.1733 22.6485 64.6782 25.6931 60.9653C30.5198 53.9851 35.9406 47.599 41.7327 41.7327C47.7475 35.7178 54.3564 30.2228 61.5594 25.2475C65.4208 22.5743 70.4703 23.1683 73.6634 26.3614V26.2871L83.8366 36.4604C87.7723 34.3069 91.9307 32.302 96.1634 30.5198C100.322 28.8119 104.629 27.3267 109.01 26.0644V11.6584C109.01 6.68317 112.797 2.59901 117.698 2.22772C121.559 1.48515 125.569 0.965346 129.653 0.594059C134.109 0.222772 138.416 0 142.5 0C146.584 0 150.817 0.222772 155.347 0.594059C159.728 1.0396 163.96 1.55941 168.119 2.37624C172.723 3.19307 175.916 7.12871 175.916 11.6584H175.99V26.0644ZM105.817 107.748C107.673 105.891 110.718 105.891 112.574 107.748C114.431 109.604 114.431 112.649 112.574 114.505L84.5049 142.5L112.574 170.495C114.431 172.351 114.431 175.396 112.574 177.252C110.718 179.109 107.673 179.109 105.817 177.252L74.4802 145.842C72.6238 143.985 72.6238 141.015 74.4802 139.158L105.817 107.748ZM172.426 114.505C170.569 112.649 170.569 109.604 172.426 107.748C174.282 105.891 177.327 105.891 179.183 107.748L210.52 139.158C212.376 141.015 212.376 143.985 210.52 145.842L179.183 177.252C177.327 179.109 174.282 179.109 172.426 177.252C170.569 175.396 170.569 172.351 172.426 170.495L200.495 142.5L172.426 114.505ZM150.817 93.1931C151.485 90.6683 154.084 89.1832 156.609 89.8515C159.134 90.5198 160.619 93.1188 159.95 95.6436L134.183 191.807C133.515 194.332 130.916 195.817 128.391 195.149C125.866 194.48 124.381 191.881 125.049 189.356L150.817 93.1931ZM181.634 48.0446C176.287 45.8168 170.718 44.1089 164.851 42.7723C160.396 42.0297 156.98 38.0941 156.98 33.4158V19.8267C155.866 19.6782 154.827 19.5297 153.713 19.4554C150.297 19.1584 146.584 19.0099 142.5 19.0099C138.416 19.0099 134.703 19.1584 131.287 19.4554C130.173 19.5297 129.059 19.6782 128.02 19.8267V33.4158C128.02 37.797 124.975 41.7327 120.52 42.698C114.505 44.0347 108.787 45.8168 103.366 48.0446C98.0198 50.2723 92.8218 52.9455 87.9208 56.0644C84.2079 58.8119 78.9356 58.5149 75.5941 55.099L66.0148 45.5198C62.2277 48.4901 58.6634 51.7574 55.1733 55.1733C51.7574 58.6634 48.4901 62.2277 45.5198 66.0148L55.099 75.5941C58.2178 78.7129 58.8119 83.6139 56.3614 87.4752C53.1683 92.5247 50.3465 97.797 48.0446 103.366C45.8168 108.639 44.1089 114.282 42.7723 120.149C42.0297 124.604 38.0941 128.02 33.4158 128.02H19.8267C19.6782 129.059 19.5297 130.173 19.4554 131.287C19.1584 134.703 19.0099 138.416 19.0099 142.5C19.0099 146.584 19.1584 150.297 19.4554 153.713C19.5297 154.827 19.6782 155.866 19.8267 156.98H33.4158C37.797 156.98 41.7327 160.025 42.698 164.48C44.0347 170.495 45.8168 176.213 48.0446 181.634C50.2723 186.98 52.9455 192.178 56.0644 197.079C58.8119 200.792 58.5149 206.064 55.099 209.406L45.5198 218.985C48.4901 222.772 51.7574 226.337 55.1733 229.827C58.6634 233.243 62.2277 236.51 66.0148 239.48L75.5941 229.901C78.7129 226.782 83.6139 226.188 87.4752 228.639C92.5247 231.832 97.797 234.653 103.366 236.955C108.639 239.109 114.282 240.891 120.149 242.228C124.604 242.97 128.02 246.906 128.02 251.584V265.173C129.059 265.322 130.173 265.396 131.287 265.545C134.703 265.842 138.416 265.99 142.5 265.99C146.584 265.99 150.297 265.842 153.713 265.545C154.827 265.396 155.866 265.322 156.98 265.173V251.584C156.98 247.203 160.025 243.267 164.48 242.302C170.495 240.965 176.213 239.183 181.634 236.955C186.98 234.728 192.178 232.054 197.079 228.936C200.792 226.188 206.064 226.485 209.406 229.901L218.985 239.48C222.772 236.51 226.337 233.243 229.827 229.827C233.243 226.337 236.51 222.772 239.48 218.985L229.901 209.406C226.782 206.287 226.188 201.386 228.639 197.525C231.832 192.475 234.653 187.129 236.955 181.634C239.109 176.287 240.891 170.718 242.228 164.851C242.97 160.396 246.906 156.98 251.584 156.98H265.173C265.322 155.866 265.396 154.827 265.545 153.713C265.842 150.297 265.99 146.584 265.99 142.5C265.99 138.416 265.842 134.703 265.545 131.287C265.396 130.173 265.322 129.059 265.173 128.02H251.584C247.203 128.02 243.267 124.975 242.302 120.52C240.965 114.505 239.183 108.787 236.955 103.366C234.728 98.0198 232.054 92.8218 228.936 87.9208C226.188 84.2079 226.485 78.9356 229.901 75.5941L239.48 66.0148C236.51 62.2277 233.243 58.6634 229.827 55.1733C226.337 51.7574 222.772 48.4901 218.985 45.5198L209.406 55.099C206.287 58.2178 201.386 58.8119 197.525 56.3614C192.475 53.1683 187.129 50.3465 181.634 48.0446Z"
				fill="#4D00AB" fill-opacity="0.25" />
		</g>
	</symbol>

	<!-- ************* -->
	<symbol id="svg-serv2"  viewBox="0 0 285 240">

		<path
			d="M33.91 33.91C56.5118 11.3082 86.1279 0 115.759 0C145.375 0 174.991 11.3082 197.607 33.91C220.209 56.5118 231.503 86.1279 231.503 115.759C231.503 135.846 226.297 155.948 215.901 173.844L276.309 234.253C282.103 240.046 285 247.664 285 255.281C285 262.898 282.103 270.515 276.309 276.309L276.295 276.324C270.501 282.103 262.898 285 255.281 285C247.664 285 240.046 282.103 234.253 276.309L173.844 215.901C155.948 226.297 135.846 231.503 115.759 231.503C86.1279 231.503 56.5118 220.209 33.91 197.607C11.3082 175.006 0 145.375 0 115.759C0 86.1279 11.3082 56.5118 33.91 33.91ZM85.4515 186.093C82.8193 186.093 80.7017 183.961 80.7017 181.344C80.7017 178.726 82.8193 176.594 85.4515 176.594H136.169C138.802 176.594 140.919 178.726 140.919 181.344C140.919 183.961 138.802 186.093 136.169 186.093H85.4515ZM165.624 65.379C160.374 65.379 156.124 69.6288 156.124 74.8785C156.124 80.1135 160.374 84.378 165.624 84.378C170.874 84.378 175.123 80.1135 175.123 74.8785C175.123 69.6288 170.874 65.379 165.624 65.379ZM132.376 113.876C128.185 113.876 124.773 117.273 124.773 121.464C124.773 125.67 128.185 129.067 132.376 129.067C136.581 129.067 139.978 125.67 139.978 121.464C139.978 117.273 136.581 113.876 132.376 113.876ZM84.878 105.597C81.7311 105.597 79.1724 108.141 79.1724 111.288C79.1724 114.45 81.7311 116.994 84.878 116.994C88.0249 116.994 90.5836 114.45 90.5836 111.288C90.5836 108.141 88.0249 105.597 84.878 105.597ZM51.6297 137.625C48.9975 137.625 46.8799 139.757 46.8799 142.375C46.8799 145.007 48.9975 147.139 51.6297 147.139C54.2472 147.139 56.3794 145.007 56.3794 142.375C56.3794 139.757 54.2472 137.625 51.6297 137.625ZM58.2029 129.743L71.0846 117.7C70.1876 115.759 69.6729 113.582 69.6729 111.288C69.6729 102.906 76.4814 96.098 84.878 96.098C92.7305 96.098 99.1861 102.054 99.9948 109.686L117.303 113.391C120.185 108.024 125.861 104.377 132.376 104.377C134.375 104.377 136.287 104.715 138.066 105.348L151.08 87.0984C148.301 83.7898 146.625 79.5253 146.625 74.8785C146.625 64.379 155.139 55.8795 165.624 55.8795C176.123 55.8795 184.623 64.379 184.623 74.8785C184.623 85.3632 176.123 93.8775 165.624 93.8775C163.212 93.8775 160.918 93.4217 158.786 92.5982L145.772 110.847C148.095 113.759 149.478 117.45 149.478 121.464C149.478 130.92 141.816 138.566 132.376 138.566C123.332 138.566 115.935 131.552 115.318 122.67L98.0097 118.95C95.3774 123.464 90.4806 126.493 84.878 126.493C82.2311 126.493 79.7312 125.817 77.5695 124.626L64.6878 136.669C65.4525 138.419 65.879 140.346 65.879 142.375C65.879 150.257 59.4969 156.639 51.6297 156.639C43.7625 156.639 37.3804 150.257 37.3804 142.375C37.3804 134.508 43.7625 128.126 51.6297 128.126C53.9972 128.126 56.2471 128.714 58.2029 129.743ZM85.4515 167.094C82.8193 167.094 80.7017 164.962 80.7017 162.345C80.7017 159.727 82.8193 157.595 85.4515 157.595H165.05C167.683 157.595 169.8 159.727 169.8 162.345C169.8 164.962 167.683 167.094 165.05 167.094H85.4515ZM204.842 189.652C202.578 192.387 200.166 195.034 197.607 197.607C195.034 200.166 192.387 202.578 189.652 204.842L247.693 262.884C249.767 264.957 252.516 266.001 255.281 266.001C258.046 266.001 260.795 264.957 262.884 262.884C264.957 260.795 266.001 258.046 266.001 255.281C266.001 252.516 264.957 249.767 262.884 247.693L204.842 189.652ZM47.3358 47.3358C28.4397 66.2319 18.999 90.9953 18.999 115.759C18.999 140.507 28.4397 165.271 47.3358 184.167C66.2319 203.063 90.9953 212.504 115.759 212.504C140.507 212.504 165.271 203.063 184.167 184.167C203.063 165.271 212.504 140.507 212.504 115.759C212.504 90.9953 203.063 66.2319 184.167 47.3358C165.271 28.4397 140.507 18.999 115.759 18.999C90.9953 18.999 66.2319 28.4397 47.3358 47.3358Z"
			fill="#4D00AB" fill-opacity="0.25" />
		
	 </symbol>
	<!-- ************* -->
	<defs id="clip0_2081_408">
		<clipPath>
			<rect width="296" height="240" fill="white" />
		</clipPath>
	</defs>
	<symbol id="svg-serv3"  viewBox="0 0 84 240">
		
			<g clip-path="url(#clip0_2081_408)">
			<path
				d="M132.392 100.601L132.776 100.382H132.721C138.542 97.1417 145.57 97.7458 152.324 101.425C158.419 104.665 164.35 110.486 168.907 118.064C169.127 118.503 169.346 118.887 169.566 119.217C174.069 127.234 176.155 135.746 175.936 143.049C175.716 151.121 172.641 157.876 166.766 161.335L166.381 161.555C166.326 161.61 166.271 161.61 166.217 161.665C172.916 169.243 179.944 175.448 186.808 179.951C198.229 187.474 208.662 190.11 215.636 186.211L215.91 186.046C222.719 181.983 225.904 171.879 225.574 158.48L217.338 158.699C214.702 158.754 212.561 156.668 212.506 154.087C212.451 151.451 214.483 149.309 217.118 149.254L224.861 149.035C222.994 134.538 217.667 117.899 208.882 101.26L199.547 106.806C197.296 108.124 194.385 107.356 193.068 105.104C191.75 102.853 192.464 99.9423 194.715 98.6244L204.269 92.9683C194.66 76.8238 183.403 63.6995 172.202 54.7487L168.138 61.6128C166.821 63.8643 163.91 64.6331 161.659 63.2602C159.408 61.9423 158.639 59.0319 159.957 56.7805L164.459 49.2573C153.642 42.4481 143.758 40.1966 137.059 43.9308L136.785 44.0955C129.482 48.4336 126.352 59.8556 127.23 74.7371C127.67 82.6995 129.317 91.5406 132.117 100.766C132.227 100.711 132.337 100.656 132.392 100.601ZM174.124 33.003L192.354 2.30649C193.672 0.0550479 196.582 -0.658825 198.833 0.659094C201.139 1.97701 201.853 4.88742 200.535 7.13886L181.976 38.3845C195.648 48.7631 209.266 64.2487 220.578 83.2486L246.44 67.9278C248.692 66.6099 251.602 67.3238 252.92 69.5752C254.238 71.8267 253.524 74.7371 251.272 76.1099L225.245 91.5406C235.678 111.145 241.938 131.133 243.914 148.541L279.167 147.607C281.748 147.552 283.944 149.584 283.999 152.22C284.054 154.801 281.967 156.997 279.386 157.052L244.518 157.986C244.958 178.139 238.808 194.338 225.794 202.246C225.52 202.41 225.19 202.575 224.916 202.74C201.304 216.468 180.383 213.064 158.255 209.494C141.397 206.749 123.716 203.893 103.839 210.647L132.062 239.642C137.114 244.858 139.64 251.613 139.64 258.367C139.64 265.121 137.114 271.876 132.062 277.092C131.898 277.257 131.733 277.422 131.513 277.642C126.462 282.529 119.982 285 113.503 285C107.023 285 100.544 282.529 95.4921 277.642C95.2725 277.422 95.1078 277.257 94.943 277.092L55.4626 236.457C47.3359 239.257 38.715 239.422 30.6981 237.225C20.375 234.37 11.0951 227.671 5.21975 217.731C4.9452 217.347 4.78047 217.017 4.67065 216.798C-1.14983 206.419 -2.35786 194.558 0.442564 183.795C3.2979 172.977 10.1068 163.202 20.3201 157.162L39.5386 145.74L39.9779 145.52C70.6178 129.486 79.3485 106.038 87.5851 83.9625C95.6569 62.3816 103.289 41.9539 127.12 27.7862C127.45 27.5666 127.67 27.4568 127.779 27.4019C140.903 20.0435 157.486 22.6793 174.124 33.003ZM131.678 146.124C131.184 145.356 130.745 144.642 130.25 143.873C130.031 143.434 129.811 143.049 129.591 142.72C128.932 141.567 128.383 140.413 127.834 139.26C117.182 119.382 110.757 99.1186 108.78 81.4914C107.627 84.4567 106.474 87.5319 105.321 90.5521C97.0846 112.627 88.4087 135.965 61.7773 154.416C61.8871 162.543 63.6442 170.176 67.3781 177.15C71.2767 184.399 77.4267 191.208 86.2123 197.358C114.821 183.246 138.706 187.145 161.329 190.769C164.789 191.373 168.193 191.922 171.598 192.361C157.596 181.928 143.594 166.168 132.062 146.728L131.678 146.124ZM72.8142 227.176L108.506 263.858L108.671 264.023C109.988 265.341 111.746 266 113.503 266C115.26 266 116.962 265.341 118.335 264.023L118.5 263.858C119.927 262.376 120.641 260.399 120.641 258.367C120.641 256.335 119.927 254.358 118.5 252.876L85.8279 219.269C84.8396 219.873 83.9061 220.477 82.9177 221.136L82.4784 221.41L72.8142 227.176ZM135.412 110.321C138.267 117.844 141.891 125.587 146.174 133.275C146.943 134.647 147.657 135.91 148.371 137.064C151.995 143.159 155.838 148.815 159.847 153.977C160.506 153.867 161.165 153.593 161.769 153.263L161.934 153.208C164.789 151.451 166.326 147.607 166.491 142.775C166.656 137.119 164.954 130.364 161.275 123.884C161.055 123.5 160.89 123.171 160.725 122.896C157.101 116.801 152.489 112.243 147.822 109.772C143.923 107.63 140.134 107.136 137.389 108.674C137.224 108.728 137.444 108.619 137.224 108.728C136.565 109.168 135.961 109.662 135.412 110.321ZM43.7118 165.344L29.9293 173.526C24.2187 176.876 20.375 182.367 18.7826 188.517C17.1902 194.723 17.8491 201.532 21.1986 207.517C21.3634 207.792 21.4732 207.957 21.5281 208.066C24.8227 213.668 29.9843 217.402 35.64 218.939C41.2958 220.532 47.5555 219.928 53.0466 216.798L53.5956 216.523L68.5312 207.682C60.734 201.038 54.8586 193.844 50.6854 186.046C47.1162 179.457 44.8649 172.538 43.7118 165.344Z"
				fill="#4D00AB" fill-opacity="0.25" />
			</g>
			
		
	 </symbol>
	<symbol id="svg-decore" viewBox="0 0 1000 917">
		<g>

			<path
				d="M72.4512 509.413C80.1512 459.18 87.8012 408.947 95.4345 358.713C99.3512 332.763 121.035 313.013 146.934 311.763C199.134 309.247 251.318 306.33 303.418 303.147C316.368 302.363 327.501 297.53 337.351 288.347C360.534 266.563 383.718 244.78 406.801 223.013C416.634 213.713 422.468 202.78 424.368 189.713C430.901 146.73 437.418 103.863 443.934 60.7801C447.951 34.6468 469.551 14.0801 495.434 11.8134C535.601 8.28011 575.634 4.31344 615.684 0.296773C631.451 -1.30323 645.001 3.58011 655.234 14.6134C665.468 25.5468 669.584 39.6801 667.184 55.6468C661.051 96.4968 654.934 137.247 648.701 178.097C644.701 204.33 623.118 225.463 597.218 228.047C554.868 232.247 512.401 236.213 469.934 239.847C457.001 240.963 445.851 245.947 436.018 255.33C412.934 277.213 389.734 299.18 366.551 320.763C356.718 329.963 351.001 340.897 348.984 353.963C341.051 406.713 333.034 459.563 325.001 512.313C320.984 538.347 299.401 558.697 273.501 560.23C223.718 563.147 173.834 565.713 123.951 568.063C108.185 568.813 94.6345 562.93 84.4012 551.23C74.1512 539.613 70.0178 525.28 72.4512 509.413ZM0.784527 850.013C9.46786 793.397 18.0512 736.78 26.6845 680.047C31.2012 650.63 55.5845 628.547 84.9012 627.297C143.918 624.78 202.851 621.93 261.768 618.597C276.318 617.763 288.968 612.197 300.001 601.947C326.201 577.647 352.401 553.063 378.601 528.48C389.634 518.113 396.168 505.63 398.468 490.93C405.901 442.43 413.234 393.847 420.551 345.247C424.968 315.63 449.468 292.58 478.668 290.08C524.051 286.197 569.318 281.897 614.584 277.313C632.351 275.497 647.601 280.98 659.251 293.38C670.784 305.863 675.418 321.83 672.701 339.93C665.784 385.997 658.851 432.08 651.818 478.047C647.401 507.763 622.918 531.813 593.701 534.68C545.834 539.363 497.851 543.813 449.868 547.747C435.218 548.947 422.668 554.513 411.618 564.963C385.418 589.747 359.218 614.33 333.034 638.813C321.984 649.18 315.468 661.463 313.251 676.28C304.218 735.797 295.184 795.33 286.051 854.947C281.634 884.48 257.151 907.147 227.934 908.68C171.618 911.613 115.318 914.33 58.9012 916.613C41.1345 917.33 25.7845 910.713 14.2345 897.547C2.58453 884.28 -1.98214 868.03 0.784527 850.013ZM999.318 289.113C991.701 340.213 984.068 391.23 976.434 442.23C972.418 468.563 950.851 490.747 924.951 494.413C872.768 501.78 820.568 508.63 768.351 515.213C755.418 516.847 744.268 522.18 734.534 531.863C711.351 554.713 688.151 577.547 664.968 600.097C655.134 609.68 649.418 620.713 647.401 633.98C640.884 677.247 634.351 720.213 627.834 763.397C623.918 789.713 602.234 810.73 576.434 813.23C536.384 817.13 496.234 820.83 456.084 824.18C440.434 825.48 426.884 820.113 416.534 808.78C406.301 797.463 402.301 783.23 404.701 767.363C410.834 726.713 416.934 686.147 423.068 645.497C427.084 619.363 448.668 598.947 474.551 596.713C517.018 593.047 559.468 588.963 601.834 584.813C614.784 583.547 625.918 578.23 635.768 568.647C658.951 546.097 682.134 523.447 705.218 500.797C715.051 491.113 720.884 479.897 722.784 466.73C730.818 413.78 738.851 360.547 746.768 307.313C750.784 280.98 772.384 259.647 798.268 256.297C848.168 249.863 898.051 243.013 947.934 235.88C963.701 233.63 977.234 237.913 987.484 248.463C997.718 259.113 1001.73 272.947 999.318 289.113Z"
				fill="#E6F0FF" fill-opacity="0.07" />
			
		</g>
	 </symbol>
	<symbol id="svg-whatsapp" viewBox="0 0 25 25">
		<g>

			<path
				d="M23.1257 5.79217C19.3919 -0.00236991 11.7456 -1.71927 5.83224 1.87549C0.0617799 5.47025 -1.7962 13.3036 1.93762 19.0803L2.24133 19.5453L0.99077 24.231L5.67145 22.9791L6.13594 23.2831C8.15471 24.374 10.3521 25 12.5317 25C14.872 25 17.2124 24.374 19.2311 23.1221C25.0016 19.3664 26.7166 11.694 23.1257 5.7564V5.79217ZM19.8564 17.8462C19.2311 18.7762 18.4451 19.4022 17.3553 19.5631C16.73 19.5631 15.9439 19.8672 12.8354 18.6332C10.1913 17.3813 7.99392 15.3424 6.43965 12.9996C5.51066 11.9086 5.0283 10.4958 4.88538 9.0829C4.88538 7.83099 5.34988 6.74004 6.13594 5.95313C6.43965 5.6491 6.76123 5.48814 7.06493 5.48814H7.851C8.15471 5.48814 8.47628 5.48814 8.63707 6.11409C8.94078 6.901 9.72685 8.77886 9.72685 8.93982C9.88763 9.10078 9.81617 10.299 9.10156 10.9786C8.70853 11.4258 8.63707 11.4436 8.79786 11.7656C9.42314 12.6955 10.2092 13.6434 10.9774 14.4303C11.9064 15.2172 12.8533 15.8432 13.943 16.3082C14.2467 16.4691 14.5683 16.4691 14.7291 16.1472C14.8899 15.8432 15.6581 15.0563 15.9797 14.7344C16.2834 14.4303 16.4442 14.4303 16.7657 14.5734L19.2669 15.8253C19.5706 15.9863 19.8921 16.1293 20.0529 16.2903C20.2137 16.7553 20.2137 17.3813 19.8921 17.8462H19.8564Z"
				fill="currentColor" />
			
		</g>
	 </symbol>
	<symbol id="svg-tg" viewBox="0 0 25 25">
		<g>

			<path
				d="M25 12.5C25 15.8152 23.683 18.9946 21.3388 21.3388C18.9946 23.683 15.8152 25 12.5 25C9.18479 25 6.00537 23.683 3.66117 21.3388C1.31696 18.9946 0 15.8152 0 12.5C0 9.18479 1.31696 6.00537 3.66117 3.66117C6.00537 1.31696 9.18479 0 12.5 0C15.8152 0 18.9946 1.31696 21.3388 3.66117C23.683 6.00537 25 9.18479 25 12.5ZM12.9484 9.22813C11.7318 9.73438 9.30156 10.7812 5.65781 12.3687C5.06719 12.6031 4.75729 12.8333 4.72813 13.0594C4.68125 13.4391 5.15781 13.5891 5.80625 13.7938L6.07969 13.8797C6.71719 14.0875 7.57656 14.3297 8.02187 14.3391C8.42812 14.3495 8.88021 14.1828 9.37812 13.8391C12.7833 11.5411 14.5406 10.3797 14.65 10.3547C14.7281 10.3359 14.8375 10.3141 14.9094 10.3797C14.9812 10.4453 14.975 10.5672 14.9672 10.6C14.9203 10.8016 13.05 12.5391 12.0828 13.4391C11.7812 13.7203 11.5672 13.9188 11.5234 13.9641C11.4271 14.0625 11.3292 14.1594 11.2297 14.2547C10.6359 14.8266 10.1922 15.2547 11.2531 15.9547C11.7641 16.2922 12.1734 16.5687 12.5813 16.8469C13.025 17.15 13.4687 17.4516 14.0437 17.8297C14.1896 17.9255 14.3302 18.0229 14.4656 18.1219C14.9828 18.4906 15.45 18.8219 16.0234 18.7688C16.3578 18.7375 16.7031 18.425 16.8781 17.4875C17.2922 15.2734 18.1063 10.4781 18.2938 8.50156C18.3055 8.33726 18.2987 8.17215 18.2734 8.00937C18.2583 7.87814 18.1948 7.75725 18.0953 7.67031C17.953 7.57256 17.7836 7.52175 17.6109 7.525C17.1422 7.53281 16.4187 7.78438 12.9484 9.22813Z"
				fill="currentColor" />
			
		</g>
	 </symbol>
	<symbol id="svg-fb" viewBox="0 0 25 25">
		<g>

			<path
				d="M25 12.5764C25 5.63069 19.4035 0 12.5 0C5.59648 0 0 5.63069 0 12.5764C0 18.8536 4.57109 24.0566 10.5469 25V16.2118H7.37305V12.5764H10.5469V9.80566C10.5469 6.6537 12.4131 4.91265 15.2684 4.91265C16.6359 4.91265 18.0664 5.15829 18.0664 5.15829V8.25326H16.4902C14.9374 8.25326 14.4531 9.22272 14.4531 10.2173V12.5764H17.9199L17.3657 16.2118H14.4531V25C20.4289 24.0566 25 18.8537 25 12.5764Z"
				fill="currentColor" />
			
		</g>
	 </symbol>
	<symbol id="svg-pin" viewBox="0 0 25 25">
		<g>
			<style type="text/css">
				.st0{fill-rule:evenodd;clip-rule:evenodd;currentColor;}
			</style>
			<g id="Layer_x0020_1">
				<path class="st0"
					d="M12.5,0C19.4,0,25,5.6,25,12.5C25,19.4,19.4,25,12.5,25C5.6,25,0,19.4,0,12.5C0,5.6,5.6,0,12.5,0z M12.5,4.8
		c3.2,0,5.8,2.6,5.8,5.8S14,18.6,12.5,21c-1.5-2.3-5.8-7.2-5.8-10.4S9.3,4.8,12.5,4.8z M12.5,8.2c1.3,0,2.3,1,2.3,2.3
		s-1,2.3-2.3,2.3s-2.3-1-2.3-2.3S11.2,8.2,12.5,8.2z" />
			</g>
		</g>
	 </symbol>
	<symbol id="svg-phone" viewBox="0 0 25 25">
		<g>
			<style type="text/css">
				.st0{fill-rule:evenodd;clip-rule:evenodd;fill:currentColor;}
			</style>
			<g id="Layer_x0020_1">
				<path class="st0"
					d="M12.5,0C19.4,0,25,5.6,25,12.5C25,19.4,19.4,25,12.5,25C5.6,25,0,19.4,0,12.5C0,5.6,5.6,0,12.5,0z M20.1,18
		c-0.6,1-1.5,1.6-2.6,1.8c-0.6,0-1.4,0.3-4.6-0.9c-2.7-1.3-5-3.4-6.6-5.8c-1-1.1-1.5-2.6-1.6-4.1c0-1.3,0.5-2.4,1.3-3.2
		c0.3-0.3,0.6-0.5,0.9-0.5h0.8c0.3,0,0.6,0,0.8,0.6c0.3,0.8,1.1,2.7,1.1,2.9C9.8,9,9.7,10.2,9,10.9c-0.4,0.5-0.5,0.5-0.3,0.8
		c0.7,0.9,1.5,1.9,2.3,2.7c0.9,0.8,1.9,1.5,3,1.9c0.3,0.2,0.6,0.2,0.8-0.2c0.2-0.3,0.9-1.1,1.3-1.5c0.3-0.3,0.5-0.3,0.8-0.2l2.6,1.3
		c0.3,0.2,0.6,0.3,0.8,0.5C20.4,16.8,20.4,17.5,20.1,18C20.1,18,20.1,18,20.1,18z" />
			</g>
		</g>
	</symbol>
	<symbol id="svg-email" viewBox="0 0 25 25">
		<g>
			<style type="text/css">
				.st0{fill-rule:evenodd;clip-rule:evenodd;fill:currentColor;}
			</style>
			<g id="Layer_x0020_1">
				<path class="st0"
					d="M12.5,0C19.4,0,25,5.6,25,12.5C25,19.4,19.4,25,12.5,25C5.6,25,0,19.4,0,12.5C0,5.6,5.6,0,12.5,0z M6.3,6.8
		h12.5c0.7,0,1.2,0.6,1.2,1.3v8.8c0,0.7-0.6,1.2-1.2,1.2H6.3c-0.7,0-1.3-0.5-1.3-1.2V8.1C5,7.4,5.6,6.8,6.3,6.8z M15.2,12.5l3.4,3.9
		c0.2,0.2-0.1,0.5-0.3,0.4l-4.1-3.1L14,14c-0.4,0.4-0.9,0.7-1.5,0.7c-0.6,0-1.1-0.2-1.5-0.7l-0.2-0.3l-4.1,3.1
		c-0.2,0.2-0.5-0.1-0.3-0.4l3.4-3.9L6.4,8.6C6.2,8.4,6.5,8.1,6.7,8.3l5.4,4c0.2,0.2,0.6,0.2,0.9,0l5.3-4c0.2-0.2,0.5,0.1,0.3,0.3
		C18.6,8.6,15.2,12.5,15.2,12.5z" />
			</g>
		</g>
	</symbol>
</svg>