<svg width="285" height="285" viewBox="0 0 285 285" fill="none" xmlns="http://www.w3.org/2000/svg">
<path d="M33.91 33.91C56.5118 11.3082 86.1279 0 115.759 0C145.375 0 174.991 11.3082 197.607 33.91C220.209 56.5118 231.503 86.1279 231.503 115.759C231.503 135.846 226.297 155.948 215.901 173.844L276.309 234.253C282.103 240.046 285 247.664 285 255.281C285 262.898 282.103 270.515 276.309 276.309L276.295 276.324C270.501 282.103 262.898 285 255.281 285C247.664 285 240.046 282.103 234.253 276.309L173.844 215.901C155.948 226.297 135.846 231.503 115.759 231.503C86.1279 231.503 56.5118 220.209 33.91 197.607C11.3082 175.006 0 145.375 0 115.759C0 86.1279 11.3082 56.5118 33.91 33.91ZM85.4515 186.093C82.8193 186.093 80.7017 183.961 80.7017 181.344C80.7017 178.726 82.8193 176.594 85.4515 176.594H136.169C138.802 176.594 140.919 178.726 140.919 181.344C140.919 183.961 138.802 186.093 136.169 186.093H85.4515ZM165.624 65.379C160.374 65.379 156.124 69.6288 156.124 74.8785C156.124 80.1135 160.374 84.378 165.624 84.378C170.874 84.378 175.123 80.1135 175.123 74.8785C175.123 69.6288 170.874 65.379 165.624 65.379ZM132.376 113.876C128.185 113.876 124.773 117.273 124.773 121.464C124.773 125.67 128.185 129.067 132.376 129.067C136.581 129.067 139.978 125.67 139.978 121.464C139.978 117.273 136.581 113.876 132.376 113.876ZM84.878 105.597C81.7311 105.597 79.1724 108.141 79.1724 111.288C79.1724 114.45 81.7311 116.994 84.878 116.994C88.0249 116.994 90.5836 114.45 90.5836 111.288C90.5836 108.141 88.0249 105.597 84.878 105.597ZM51.6297 137.625C48.9975 137.625 46.8799 139.757 46.8799 142.375C46.8799 145.007 48.9975 147.139 51.6297 147.139C54.2472 147.139 56.3794 145.007 56.3794 142.375C56.3794 139.757 54.2472 137.625 51.6297 137.625ZM58.2029 129.743L71.0846 117.7C70.1876 115.759 69.6729 113.582 69.6729 111.288C69.6729 102.906 76.4814 96.098 84.878 96.098C92.7305 96.098 99.1861 102.054 99.9948 109.686L117.303 113.391C120.185 108.024 125.861 104.377 132.376 104.377C134.375 104.377 136.287 104.715 138.066 105.348L151.08 87.0984C148.301 83.7898 146.625 79.5253 146.625 74.8785C146.625 64.379 155.139 55.8795 165.624 55.8795C176.123 55.8795 184.623 64.379 184.623 74.8785C184.623 85.3632 176.123 93.8775 165.624 93.8775C163.212 93.8775 160.918 93.4217 158.786 92.5982L145.772 110.847C148.095 113.759 149.478 117.45 149.478 121.464C149.478 130.92 141.816 138.566 132.376 138.566C123.332 138.566 115.935 131.552 115.318 122.67L98.0097 118.95C95.3774 123.464 90.4806 126.493 84.878 126.493C82.2311 126.493 79.7312 125.817 77.5695 124.626L64.6878 136.669C65.4525 138.419 65.879 140.346 65.879 142.375C65.879 150.257 59.4969 156.639 51.6297 156.639C43.7625 156.639 37.3804 150.257 37.3804 142.375C37.3804 134.508 43.7625 128.126 51.6297 128.126C53.9972 128.126 56.2471 128.714 58.2029 129.743ZM85.4515 167.094C82.8193 167.094 80.7017 164.962 80.7017 162.345C80.7017 159.727 82.8193 157.595 85.4515 157.595H165.05C167.683 157.595 169.8 159.727 169.8 162.345C169.8 164.962 167.683 167.094 165.05 167.094H85.4515ZM204.842 189.652C202.578 192.387 200.166 195.034 197.607 197.607C195.034 200.166 192.387 202.578 189.652 204.842L247.693 262.884C249.767 264.957 252.516 266.001 255.281 266.001C258.046 266.001 260.795 264.957 262.884 262.884C264.957 260.795 266.001 258.046 266.001 255.281C266.001 252.516 264.957 249.767 262.884 247.693L204.842 189.652ZM47.3358 47.3358C28.4397 66.2319 18.999 90.9953 18.999 115.759C18.999 140.507 28.4397 165.271 47.3358 184.167C66.2319 203.063 90.9953 212.504 115.759 212.504C140.507 212.504 165.271 203.063 184.167 184.167C203.063 165.271 212.504 140.507 212.504 115.759C212.504 90.9953 203.063 66.2319 184.167 47.3358C165.271 28.4397 140.507 18.999 115.759 18.999C90.9953 18.999 66.2319 28.4397 47.3358 47.3358Z" fill="#4D00AB" fill-opacity="0.25"/>
</svg>
