<svg width="285" height="240" viewBox="0 0 285 240" fill="none" xmlns="http://www.w3.org/2000/svg">
<path d="M167.397 251.763C164.787 251.763 162.644 249.62 162.644 247.01C162.644 244.37 164.787 242.258 167.397 242.258H227.783C230.423 242.258 232.535 244.37 232.535 247.01C232.535 249.62 230.423 251.763 227.783 251.763H167.397ZM9.50518 94.9896H180.07L222.347 48.1782L201.131 29.0436L285 0L283.043 8.35586L264.623 86.3853L243.407 67.2196L218.308 94.9896H275.495C280.744 94.9896 285 99.2452 285 104.495V275.495C285 280.744 280.744 285 275.495 285H9.50518C4.25559 285 0 280.744 0 275.495V104.495C0 99.2452 4.25559 94.9896 9.50518 94.9896ZM162.924 114H19.0104V187.028L54.2354 148.014C55.9749 145.839 58.3357 144.224 60.976 143.385C63.5232 142.578 66.3188 142.453 69.0834 143.23L123.008 158.171L162.924 114ZM19.0104 201.131V215.233L66.8469 162.271L126.394 178.766C127.264 178.983 128.134 178.983 129.003 178.735C129.811 178.517 130.556 178.051 131.178 177.368L242.724 53.8627L259.063 68.6174L271.829 14.5684L219.365 32.7401L235.704 47.5259L126.114 168.857L66.5673 152.362C65.6354 152.114 64.7035 152.145 63.8648 152.425C62.9951 152.704 62.1875 153.232 61.6283 153.947L19.0104 201.131ZM19.0104 229.367V265.99H265.99V114H201.162L138.167 183.736C136.334 185.755 134.066 187.122 131.613 187.836C129.096 188.55 126.425 188.581 123.878 187.898L69.9531 172.957L19.0104 229.367ZM167.397 194.763C164.787 194.763 162.644 192.62 162.644 190.01C162.644 187.37 164.787 185.258 167.397 185.258H247.01C249.62 185.258 251.763 187.37 251.763 190.01C251.763 192.62 249.62 194.763 247.01 194.763H167.397ZM167.397 213.742C164.787 213.742 162.644 211.63 162.644 208.99C162.644 206.38 164.787 204.237 167.397 204.237H218.122C220.731 204.237 222.875 206.38 222.875 208.99C222.875 211.63 220.731 213.742 218.122 213.742H167.397ZM167.397 232.753C164.787 232.753 162.644 230.64 162.644 228C162.644 225.391 164.787 223.247 167.397 223.247H233.56C236.201 223.247 238.313 225.391 238.313 228C238.313 230.64 236.201 232.753 233.56 232.753H167.397Z" fill="#4D00AB" fill-opacity="0.25"/>
</svg>
