<svg width="285" height="285" viewBox="0 0 285 285" fill="none" xmlns="http://www.w3.org/2000/svg">
<path d="M175.99 26.0644C180.371 27.3267 184.604 28.8119 188.837 30.5198C193.069 32.302 197.228 34.3069 201.163 36.4604L211.337 26.2871C214.827 22.797 220.322 22.6485 224.035 25.6931C231.015 30.5198 237.401 35.9406 243.267 41.7327C249.282 47.7475 254.777 54.3564 259.752 61.5594C262.426 65.4208 261.832 70.4703 258.639 73.6634H258.713L248.54 83.8366C250.693 87.7723 252.698 91.9307 254.48 96.1634C256.188 100.322 257.673 104.629 258.936 109.01H273.342C278.317 109.01 282.401 112.797 282.772 117.698C283.515 121.559 284.035 125.569 284.406 129.653C284.777 134.109 285 138.416 285 142.5C285 146.584 284.777 150.817 284.406 155.347C283.96 159.728 283.441 163.96 282.624 168.119C281.807 172.723 277.797 175.916 273.342 175.916V175.99H258.936C257.673 180.371 256.188 184.604 254.48 188.837C252.698 193.069 250.693 197.228 248.54 201.163L258.713 211.337C262.129 214.827 262.351 220.322 259.307 224.035C254.48 231.015 249.059 237.401 243.267 243.267C237.252 249.282 230.644 254.777 223.441 259.752C219.579 262.426 214.53 261.832 211.337 258.639V258.713L201.163 248.54C197.228 250.693 193.069 252.698 188.837 254.48C184.604 256.188 180.371 257.673 175.99 258.936V273.342C175.99 278.317 172.203 282.401 167.302 282.772C163.441 283.515 159.431 284.035 155.347 284.406C150.817 284.777 146.584 285 142.5 285C138.416 285 134.109 284.777 129.653 284.406C125.272 283.96 121.04 283.441 116.881 282.624C112.277 281.807 109.01 277.797 109.084 273.342H109.01V258.936C104.629 257.673 100.322 256.188 96.1634 254.48C91.9307 252.698 87.7723 250.693 83.8366 248.54L73.6634 258.713C70.1733 262.129 64.6782 262.351 60.9653 259.307C53.9851 254.48 47.599 249.059 41.7327 243.267C35.7178 237.252 30.2228 230.644 25.2475 223.441C22.5743 219.579 23.1683 214.53 26.3614 211.337H26.2871L36.4604 201.163C34.3069 197.228 32.302 193.069 30.5198 188.837C28.8119 184.604 27.3267 180.371 26.0644 175.99H11.6584C6.68317 175.99 2.59901 172.203 2.22772 167.302C1.48515 163.441 0.965346 159.431 0.594059 155.347C0.222772 150.891 0 146.584 0 142.5C0 138.416 0.222772 134.109 0.594059 129.653C1.0396 125.272 1.55941 121.04 2.37624 116.881C3.19307 112.277 7.12871 109.01 11.6584 109.084V109.01H26.0644C27.3267 104.629 28.8119 100.322 30.5198 96.1634C32.302 91.9307 34.3069 87.7723 36.4604 83.8366L26.2871 73.6634C22.797 70.1733 22.6485 64.6782 25.6931 60.9653C30.5198 53.9851 35.9406 47.599 41.7327 41.7327C47.7475 35.7178 54.3564 30.2228 61.5594 25.2475C65.4208 22.5743 70.4703 23.1683 73.6634 26.3614V26.2871L83.8366 36.4604C87.7723 34.3069 91.9307 32.302 96.1634 30.5198C100.322 28.8119 104.629 27.3267 109.01 26.0644V11.6584C109.01 6.68317 112.797 2.59901 117.698 2.22772C121.559 1.48515 125.569 0.965346 129.653 0.594059C134.109 0.222772 138.416 0 142.5 0C146.584 0 150.817 0.222772 155.347 0.594059C159.728 1.0396 163.96 1.55941 168.119 2.37624C172.723 3.19307 175.916 7.12871 175.916 11.6584H175.99V26.0644ZM105.817 107.748C107.673 105.891 110.718 105.891 112.574 107.748C114.431 109.604 114.431 112.649 112.574 114.505L84.5049 142.5L112.574 170.495C114.431 172.351 114.431 175.396 112.574 177.252C110.718 179.109 107.673 179.109 105.817 177.252L74.4802 145.842C72.6238 143.985 72.6238 141.015 74.4802 139.158L105.817 107.748ZM172.426 114.505C170.569 112.649 170.569 109.604 172.426 107.748C174.282 105.891 177.327 105.891 179.183 107.748L210.52 139.158C212.376 141.015 212.376 143.985 210.52 145.842L179.183 177.252C177.327 179.109 174.282 179.109 172.426 177.252C170.569 175.396 170.569 172.351 172.426 170.495L200.495 142.5L172.426 114.505ZM150.817 93.1931C151.485 90.6683 154.084 89.1832 156.609 89.8515C159.134 90.5198 160.619 93.1188 159.95 95.6436L134.183 191.807C133.515 194.332 130.916 195.817 128.391 195.149C125.866 194.48 124.381 191.881 125.049 189.356L150.817 93.1931ZM181.634 48.0446C176.287 45.8168 170.718 44.1089 164.851 42.7723C160.396 42.0297 156.98 38.0941 156.98 33.4158V19.8267C155.866 19.6782 154.827 19.5297 153.713 19.4554C150.297 19.1584 146.584 19.0099 142.5 19.0099C138.416 19.0099 134.703 19.1584 131.287 19.4554C130.173 19.5297 129.059 19.6782 128.02 19.8267V33.4158C128.02 37.797 124.975 41.7327 120.52 42.698C114.505 44.0347 108.787 45.8168 103.366 48.0446C98.0198 50.2723 92.8218 52.9455 87.9208 56.0644C84.2079 58.8119 78.9356 58.5149 75.5941 55.099L66.0148 45.5198C62.2277 48.4901 58.6634 51.7574 55.1733 55.1733C51.7574 58.6634 48.4901 62.2277 45.5198 66.0148L55.099 75.5941C58.2178 78.7129 58.8119 83.6139 56.3614 87.4752C53.1683 92.5247 50.3465 97.797 48.0446 103.366C45.8168 108.639 44.1089 114.282 42.7723 120.149C42.0297 124.604 38.0941 128.02 33.4158 128.02H19.8267C19.6782 129.059 19.5297 130.173 19.4554 131.287C19.1584 134.703 19.0099 138.416 19.0099 142.5C19.0099 146.584 19.1584 150.297 19.4554 153.713C19.5297 154.827 19.6782 155.866 19.8267 156.98H33.4158C37.797 156.98 41.7327 160.025 42.698 164.48C44.0347 170.495 45.8168 176.213 48.0446 181.634C50.2723 186.98 52.9455 192.178 56.0644 197.079C58.8119 200.792 58.5149 206.064 55.099 209.406L45.5198 218.985C48.4901 222.772 51.7574 226.337 55.1733 229.827C58.6634 233.243 62.2277 236.51 66.0148 239.48L75.5941 229.901C78.7129 226.782 83.6139 226.188 87.4752 228.639C92.5247 231.832 97.797 234.653 103.366 236.955C108.639 239.109 114.282 240.891 120.149 242.228C124.604 242.97 128.02 246.906 128.02 251.584V265.173C129.059 265.322 130.173 265.396 131.287 265.545C134.703 265.842 138.416 265.99 142.5 265.99C146.584 265.99 150.297 265.842 153.713 265.545C154.827 265.396 155.866 265.322 156.98 265.173V251.584C156.98 247.203 160.025 243.267 164.48 242.302C170.495 240.965 176.213 239.183 181.634 236.955C186.98 234.728 192.178 232.054 197.079 228.936C200.792 226.188 206.064 226.485 209.406 229.901L218.985 239.48C222.772 236.51 226.337 233.243 229.827 229.827C233.243 226.337 236.51 222.772 239.48 218.985L229.901 209.406C226.782 206.287 226.188 201.386 228.639 197.525C231.832 192.475 234.653 187.129 236.955 181.634C239.109 176.287 240.891 170.718 242.228 164.851C242.97 160.396 246.906 156.98 251.584 156.98H265.173C265.322 155.866 265.396 154.827 265.545 153.713C265.842 150.297 265.99 146.584 265.99 142.5C265.99 138.416 265.842 134.703 265.545 131.287C265.396 130.173 265.322 129.059 265.173 128.02H251.584C247.203 128.02 243.267 124.975 242.302 120.52C240.965 114.505 239.183 108.787 236.955 103.366C234.728 98.0198 232.054 92.8218 228.936 87.9208C226.188 84.2079 226.485 78.9356 229.901 75.5941L239.48 66.0148C236.51 62.2277 233.243 58.6634 229.827 55.1733C226.337 51.7574 222.772 48.4901 218.985 45.5198L209.406 55.099C206.287 58.2178 201.386 58.8119 197.525 56.3614C192.475 53.1683 187.129 50.3465 181.634 48.0446Z" fill="#4D00AB" fill-opacity="0.25"/>
</svg>
