<svg width="285" height="285" viewBox="0 0 285 285" fill="none" xmlns="http://www.w3.org/2000/svg">
<path d="M133.392 100.601L133.776 100.382H133.721C139.542 97.1417 146.57 97.7458 153.324 101.425C159.419 104.665 165.35 110.486 169.907 118.064C170.127 118.503 170.346 118.887 170.566 119.217C175.069 127.234 177.155 135.746 176.936 143.049C176.716 151.121 173.641 157.876 167.766 161.335L167.381 161.555C167.326 161.61 167.271 161.61 167.217 161.665C173.916 169.243 180.944 175.448 187.808 179.951C199.229 187.474 209.662 190.11 216.636 186.211L216.91 186.046C223.719 181.983 226.904 171.879 226.574 158.48L218.338 158.699C215.702 158.754 213.561 156.668 213.506 154.087C213.451 151.451 215.483 149.309 218.118 149.254L225.861 149.035C223.994 134.538 218.667 117.899 209.882 101.26L200.547 106.806C198.296 108.124 195.385 107.356 194.068 105.104C192.75 102.853 193.464 99.9423 195.715 98.6244L205.269 92.9683C195.66 76.8238 184.403 63.6995 173.202 54.7487L169.138 61.6128C167.821 63.8643 164.91 64.6331 162.659 63.2602C160.408 61.9423 159.639 59.0319 160.957 56.7805L165.459 49.2573C154.642 42.4481 144.758 40.1966 138.059 43.9308L137.785 44.0955C130.482 48.4336 127.352 59.8556 128.23 74.7371C128.67 82.6995 130.317 91.5406 133.117 100.766C133.227 100.711 133.337 100.656 133.392 100.601ZM175.124 33.003L193.354 2.30649C194.672 0.0550479 197.582 -0.658825 199.833 0.659094C202.139 1.97701 202.853 4.88742 201.535 7.13886L182.976 38.3845C196.648 48.7631 210.266 64.2487 221.578 83.2486L247.44 67.9278C249.692 66.6099 252.602 67.3238 253.92 69.5752C255.238 71.8267 254.524 74.7371 252.272 76.1099L226.245 91.5406C236.678 111.145 242.938 131.133 244.914 148.541L280.167 147.607C282.748 147.552 284.944 149.584 284.999 152.22C285.054 154.801 282.967 156.997 280.386 157.052L245.518 157.986C245.958 178.139 239.808 194.338 226.794 202.246C226.52 202.41 226.19 202.575 225.916 202.74C202.304 216.468 181.383 213.064 159.255 209.494C142.397 206.749 124.716 203.893 104.839 210.647L133.062 239.642C138.114 244.858 140.64 251.613 140.64 258.367C140.64 265.121 138.114 271.876 133.062 277.092C132.898 277.257 132.733 277.422 132.513 277.642C127.462 282.529 120.982 285 114.503 285C108.023 285 101.544 282.529 96.4921 277.642C96.2725 277.422 96.1078 277.257 95.943 277.092L56.4626 236.457C48.3359 239.257 39.715 239.422 31.6981 237.225C21.375 234.37 12.0951 227.671 6.21975 217.731C5.9452 217.347 5.78047 217.017 5.67065 216.798C-0.149832 206.419 -1.35786 194.558 1.44256 183.795C4.2979 172.977 11.1068 163.202 21.3201 157.162L40.5386 145.74L40.9779 145.52C71.6178 129.486 80.3485 106.038 88.5851 83.9625C96.6569 62.3816 104.289 41.9539 128.12 27.7862C128.45 27.5666 128.67 27.4568 128.779 27.4019C141.903 20.0435 158.486 22.6793 175.124 33.003ZM132.678 146.124C132.184 145.356 131.745 144.642 131.25 143.873C131.031 143.434 130.811 143.049 130.591 142.72C129.932 141.567 129.383 140.413 128.834 139.26C118.182 119.382 111.757 99.1186 109.78 81.4914C108.627 84.4567 107.474 87.5319 106.321 90.5521C98.0846 112.627 89.4087 135.965 62.7773 154.416C62.8871 162.543 64.6442 170.176 68.3781 177.15C72.2767 184.399 78.4267 191.208 87.2123 197.358C115.821 183.246 139.706 187.145 162.329 190.769C165.789 191.373 169.193 191.922 172.598 192.361C158.596 181.928 144.594 166.168 133.062 146.728L132.678 146.124ZM73.8142 227.176L109.506 263.858L109.671 264.023C110.988 265.341 112.746 266 114.503 266C116.26 266 117.962 265.341 119.335 264.023L119.5 263.858C120.927 262.376 121.641 260.399 121.641 258.367C121.641 256.335 120.927 254.358 119.5 252.876L86.8279 219.269C85.8396 219.873 84.9061 220.477 83.9177 221.136L83.4784 221.41L73.8142 227.176ZM136.412 110.321C139.267 117.844 142.891 125.587 147.174 133.275C147.943 134.647 148.657 135.91 149.371 137.064C152.995 143.159 156.838 148.815 160.847 153.977C161.506 153.867 162.165 153.593 162.769 153.263L162.934 153.208C165.789 151.451 167.326 147.607 167.491 142.775C167.656 137.119 165.954 130.364 162.275 123.884C162.055 123.5 161.89 123.171 161.725 122.896C158.101 116.801 153.489 112.243 148.822 109.772C144.923 107.63 141.134 107.136 138.389 108.674C138.224 108.728 138.444 108.619 138.224 108.728C137.565 109.168 136.961 109.662 136.412 110.321ZM44.7118 165.344L30.9293 173.526C25.2187 176.876 21.375 182.367 19.7826 188.517C18.1902 194.723 18.8491 201.532 22.1986 207.517C22.3634 207.792 22.4732 207.957 22.5281 208.066C25.8227 213.668 30.9843 217.402 36.64 218.939C42.2958 220.532 48.5555 219.928 54.0466 216.798L54.5956 216.523L69.5312 207.682C61.734 201.038 55.8586 193.844 51.6854 186.046C48.1162 179.457 45.8649 172.538 44.7118 165.344Z" fill="#4D00AB" fill-opacity="0.25"/>
</svg>
